<svg width="80" height="80" viewBox="0 0 80 80" fill="none" xmlns="http://www.w3.org/2000/svg">
<rect width="80" height="80" rx="40" fill="#F2F6EE"/>
<path d="M30 37C32.2091 37 34 35.2091 34 33C34 30.7909 32.2091 29 30 29C27.7909 29 26 30.7909 26 33C26 35.2091 27.7909 37 30 37Z" stroke="#152C01" stroke-width="2" stroke-linecap="round" stroke-linejoin="round"/>
<path d="M35 47V44C35 42.6739 34.4732 41.4021 33.5355 40.4645C32.5979 39.5268 31.3261 39 30 39C28.6739 39 27.4021 39.5268 26.4645 40.4645C25.5268 41.4021 25 42.6739 25 44V47H27L28 55H32L33 47H35Z" stroke="#152C01" stroke-width="2" stroke-linecap="round" stroke-linejoin="round"/>
<path d="M49 33C49.0032 32.2971 48.8212 31.6057 48.4723 30.9955C48.1233 30.3853 47.6197 29.8778 47.0122 29.5242C46.4046 29.1706 45.7147 28.9833 45.0117 28.9813C44.3088 28.9792 43.6177 29.1624 43.0081 29.5125C42.3986 29.8625 41.892 30.367 41.5394 30.9752C41.1869 31.5833 41.0008 32.2736 41 32.9765C40.9992 33.6795 41.1836 34.3702 41.5347 34.9792C41.8858 35.5882 42.3912 36.0939 43 36.4453V39H47V36.4453C47.6064 36.0971 48.1104 35.5954 48.4615 34.9906C48.8126 34.3858 48.9983 33.6993 49 33Z" stroke="#152C01" stroke-width="2" stroke-linecap="round" stroke-linejoin="round"/>
<path d="M45 39V41" stroke="#152C01" stroke-width="2" stroke-linecap="round" stroke-linejoin="round"/>
<path d="M39 45H43V51L49 45H53C53.5304 45 54.0391 44.7893 54.4142 44.4142C54.7893 44.0391 55 43.5304 55 43V27C55 26.4696 54.7893 25.9609 54.4142 25.5858C54.0391 25.2107 53.5304 25 53 25H37C36.4696 25 35.9609 25.2107 35.5858 25.5858C35.2107 25.9609 35 26.4696 35 27" stroke="#152C01" stroke-width="2" stroke-linecap="round" stroke-linejoin="round"/>
</svg>
