<svg width="80" height="80" viewBox="0 0 80 80" fill="none" xmlns="http://www.w3.org/2000/svg">
<rect width="80" height="80" rx="40" fill="#F2F6EE"/>
<g clip-path="url(#clip0)">
<path d="M40 54.9974C48.2843 54.9974 55 48.2816 55 39.9974C55 31.7131 48.2843 24.9974 40 24.9974C31.7157 24.9974 25 31.7131 25 39.9974C25 48.2816 31.7157 54.9974 40 54.9974Z" stroke="#152C01" stroke-width="2" stroke-linecap="round" stroke-linejoin="round"/>
<path d="M43.6213 34.6187C43.3247 34.322 42.9467 34.12 42.5352 34.0381C42.1237 33.9563 41.6972 33.9983 41.3095 34.1589C40.9219 34.3194 40.5906 34.5913 40.3575 34.9402C40.1244 35.289 40 35.6991 40 36.1187V38L36.6213 34.6187C36.3247 34.322 35.9467 34.12 35.5352 34.0381C35.1237 33.9563 34.6972 33.9983 34.3095 34.1589C33.9219 34.3194 33.5906 34.5913 33.3575 34.9402C33.1244 35.289 33 35.6991 33 36.1187V43.8774C33.0006 44.2966 33.1254 44.7063 33.3586 45.0548C33.5918 45.4032 33.923 45.6748 34.3104 45.8352C34.6977 45.9957 35.1239 46.0378 35.5352 45.9563C35.9465 45.8748 36.3244 45.6734 36.6213 45.3774L40 42V43.88C40.0006 44.2993 40.1254 44.709 40.3586 45.0574C40.5918 45.4059 40.923 45.6774 41.3104 45.8379C41.6977 45.9983 42.1239 46.0405 42.5352 45.959C42.9465 45.8775 43.3244 45.676 43.6213 45.38L49 40L43.6213 34.6187Z" stroke="#152C01" stroke-width="2" stroke-linecap="round" stroke-linejoin="round"/>
</g>
<defs>
<clipPath id="clip0">
<rect x="24" y="24" width="32" height="32" fill="white"/>
</clipPath>
</defs>
</svg>
