<svg width="81" height="80" viewBox="0 0 81 80" fill="none" xmlns="http://www.w3.org/2000/svg">
<rect x="0.5" width="80" height="80" rx="40" fill="#F2F6EE"/>
<g clip-path="url(#clip0)">
<path d="M36.5159 49.5841C36.1409 49.959 35.6323 50.1696 35.1019 50.1696C34.5716 50.1696 34.063 49.959 33.6879 49.5841L26.5159 42.4134C26.3301 42.2277 26.1826 42.0071 26.0821 41.7644C25.9815 41.5216 25.9297 41.2615 25.9297 40.9987C25.9297 40.736 25.9815 40.4758 26.0821 40.2331C26.1826 39.9903 26.3301 39.7698 26.5159 39.5841L40.5159 25.5841C40.7017 25.3984 40.9223 25.2511 41.165 25.1507C41.4078 25.0502 41.6679 24.9986 41.9306 24.9987H49.1013C49.6317 24.9987 50.1404 25.2094 50.5155 25.5845C50.8905 25.9596 51.1013 26.4683 51.1013 26.9987V34.1707C51.1011 34.7008 50.8906 35.2091 50.5159 35.5841" stroke="#152C01" stroke-width="2" stroke-linecap="round" stroke-linejoin="round"/>
<path d="M46.1001 29.4987C46.0012 29.4987 45.9045 29.528 45.8223 29.583C45.7401 29.6379 45.676 29.716 45.6382 29.8074C45.6003 29.8987 45.5904 29.9993 45.6097 30.0963C45.629 30.1933 45.6766 30.2823 45.7465 30.3523C45.8165 30.4222 45.9056 30.4698 46.0026 30.4891C46.0995 30.5084 46.2001 30.4985 46.2914 30.4607C46.3828 30.4228 46.4609 30.3587 46.5158 30.2765C46.5708 30.1943 46.6001 30.0976 46.6001 29.9987C46.6001 29.8661 46.5474 29.7389 46.4536 29.6452C46.3599 29.5514 46.2327 29.4987 46.1001 29.4987Z" stroke="#152C01" stroke-width="2" stroke-linecap="round" stroke-linejoin="round"/>
<path d="M47.9991 39.572L50.0537 44.9986H54.0537C54.2556 44.9904 54.455 45.0448 54.6247 45.1543C54.7945 45.2638 54.9263 45.4231 55.002 45.6103C55.0778 45.7976 55.0938 46.0037 55.0479 46.2004C55.002 46.3971 54.8965 46.5749 54.7457 46.7093L51.2791 49.1293L53.2031 53.548C53.287 53.7503 53.3055 53.9738 53.2559 54.1872C53.2063 54.4005 53.091 54.593 52.9264 54.7374C52.7617 54.8819 52.556 54.9712 52.338 54.9927C52.12 55.0142 51.9007 54.9668 51.7111 54.8573L47.0617 52.2426L42.4071 54.8573C42.2174 54.9668 41.9981 55.0142 41.7801 54.9927C41.5621 54.9712 41.3564 54.8819 41.1917 54.7374C41.0271 54.593 40.9118 54.4005 40.8622 54.1872C40.8126 53.9738 40.8311 53.7503 40.9151 53.548L42.8391 49.1293L39.3724 46.7093C39.2213 46.5755 39.1152 46.3982 39.0687 46.2018C39.0223 46.0053 39.0377 45.7993 39.1129 45.612C39.1881 45.4247 39.3194 45.2652 39.4888 45.1554C39.6582 45.0456 39.8573 44.9908 40.0591 44.9986H44.0591L46.1191 39.572C46.2102 39.402 46.3458 39.2599 46.5113 39.1608C46.6769 39.0618 46.8662 39.0095 47.0591 39.0095C47.252 39.0095 47.4413 39.0618 47.6068 39.1608C47.7723 39.2599 47.9079 39.402 47.9991 39.572V39.572Z" stroke="#152C01" stroke-width="2" stroke-linecap="round" stroke-linejoin="round"/>
</g>
<defs>
<clipPath id="clip0">
<rect x="24.5" y="24" width="32" height="32" fill="white"/>
</clipPath>
</defs>
</svg>
