<svg width="24" height="25" viewBox="0 0 24 25" fill="none" xmlns="http://www.w3.org/2000/svg">
<path d="M12 0.703613C8.74 0.703613 8.333 0.718613 7.053 0.775613C5.775 0.835613 4.905 1.03661 4.14 1.33361C3.351 1.63961 2.681 2.05061 2.014 2.71761C1.347 3.38461 0.935 4.05361 0.63 4.84361C0.333 5.60861 0.131 6.47861 0.072 7.75661C0.012 9.03661 0 9.44361 0 12.7036C0 15.9636 0.015 16.3706 0.072 17.6506C0.132 18.9276 0.333 19.7986 0.63 20.5636C0.936 21.3516 1.347 22.0226 2.014 22.6896C2.681 23.3556 3.35 23.7686 4.14 24.0736C4.906 24.3696 5.776 24.5726 7.053 24.6316C8.333 24.6916 8.74 24.7036 12 24.7036C15.26 24.7036 15.667 24.6886 16.947 24.6316C18.224 24.5716 19.095 24.3696 19.86 24.0736C20.648 23.7676 21.319 23.3556 21.986 22.6896C22.652 22.0226 23.065 21.3546 23.37 20.5636C23.666 19.7986 23.869 18.9276 23.928 17.6506C23.988 16.3706 24 15.9636 24 12.7036C24 9.44361 23.985 9.03661 23.928 7.75661C23.868 6.47961 23.666 5.60761 23.37 4.84361C23.064 4.05461 22.652 3.38461 21.986 2.71761C21.319 2.05061 20.651 1.63861 19.86 1.33361C19.095 1.03661 18.224 0.834613 16.947 0.775613C15.667 0.715613 15.26 0.703613 12 0.703613ZM12 2.86361C15.203 2.86361 15.585 2.87961 16.85 2.93461C18.02 2.98961 18.655 3.18361 19.077 3.34961C19.639 3.56661 20.037 3.82661 20.459 4.24561C20.878 4.66561 21.138 5.06461 21.355 5.62661C21.519 6.04861 21.715 6.68361 21.768 7.85361C21.825 9.11961 21.838 9.49961 21.838 12.7036C21.838 15.9076 21.823 16.2886 21.764 17.5536C21.703 18.7236 21.508 19.3586 21.343 19.7806C21.119 20.3426 20.864 20.7406 20.444 21.1626C20.025 21.5816 19.62 21.8416 19.064 22.0586C18.644 22.2226 17.999 22.4186 16.829 22.4716C15.555 22.5286 15.18 22.5416 11.97 22.5416C8.759 22.5416 8.384 22.5266 7.111 22.4676C5.94 22.4066 5.295 22.2116 4.875 22.0466C4.306 21.8226 3.915 21.5676 3.496 21.1476C3.075 20.7286 2.806 20.3236 2.596 19.7676C2.431 19.3476 2.237 18.7026 2.176 17.5326C2.131 16.2726 2.115 15.8836 2.115 12.6886C2.115 9.49261 2.131 9.10261 2.176 7.82761C2.237 6.65761 2.431 6.01361 2.596 5.59361C2.806 5.02361 3.075 4.63361 3.496 4.21261C3.915 3.79361 4.306 3.52361 4.875 3.31461C5.295 3.14861 5.926 2.95361 7.096 2.89361C8.371 2.84861 8.746 2.83361 11.955 2.83361L12 2.86361ZM12 6.54161C8.595 6.54161 5.838 9.30161 5.838 12.7036C5.838 16.1086 8.598 18.8656 12 18.8656C15.405 18.8656 18.162 16.1056 18.162 12.7036C18.162 9.29861 15.402 6.54161 12 6.54161ZM12 16.7036C9.79 16.7036 8 14.9136 8 12.7036C8 10.4936 9.79 8.70361 12 8.70361C14.21 8.70361 16 10.4936 16 12.7036C16 14.9136 14.21 16.7036 12 16.7036ZM19.846 6.29861C19.846 7.09361 19.2 7.73861 18.406 7.73861C17.611 7.73861 16.966 7.09261 16.966 6.29861C16.966 5.50461 17.612 4.85961 18.406 4.85961C19.199 4.85861 19.846 5.50461 19.846 6.29861Z" fill="white"/>
</svg>
