<svg width="25" height="24" viewBox="0 0 25 24" fill="none" xmlns="http://www.w3.org/2000/svg">
<path d="M24.25 3.25C24.2489 2.38837 23.9062 1.56234 23.2969 0.953072C22.6877 0.343808 21.8616 0.00105851 21 0L4 0C3.13837 0.00105851 2.31234 0.343808 1.70307 0.953072C1.09381 1.56234 0.751059 2.38837 0.75 3.25V15.75C0.751059 16.6116 1.09381 17.4377 1.70307 18.0469C2.31234 18.6562 3.13837 18.9989 4 19H6.948L10.835 23.263C11.046 23.4947 11.303 23.6798 11.5896 23.8065C11.8762 23.9332 12.1861 23.9986 12.4995 23.9986C12.8129 23.9986 13.1228 23.9332 13.4094 23.8065C13.696 23.6798 13.953 23.4947 14.164 23.263L18.052 19H21C21.8616 18.9989 22.6877 18.6562 23.2969 18.0469C23.9062 17.4377 24.2489 16.6116 24.25 15.75V3.25ZM21.75 15.75C21.7497 15.9488 21.6706 16.1394 21.53 16.28C21.3894 16.4206 21.1988 16.4997 21 16.5H17.5C17.3261 16.5 17.1541 16.5363 16.995 16.6065C16.8358 16.6768 16.6932 16.7795 16.576 16.908L12.685 21.176C12.6616 21.2018 12.633 21.2224 12.6011 21.2365C12.5693 21.2506 12.5348 21.2578 12.5 21.2578C12.4652 21.2578 12.4307 21.2506 12.3989 21.2365C12.367 21.2224 12.3384 21.2018 12.315 21.176L8.424 16.909C8.30693 16.7803 8.16428 16.6774 8.00517 16.607C7.84606 16.5365 7.674 16.5001 7.5 16.5H4C3.80117 16.4997 3.61056 16.4206 3.46996 16.28C3.32937 16.1394 3.25026 15.9488 3.25 15.75V3.25C3.25026 3.05117 3.32937 2.86056 3.46996 2.71996C3.61056 2.57937 3.80117 2.50026 4 2.5H21C21.1988 2.50026 21.3894 2.57937 21.53 2.71996C21.6706 2.86056 21.7497 3.05117 21.75 3.25V15.75Z" fill="#FBFBFB"/>
</svg>
