<svg width="24" height="22" viewBox="0 0 24 22" fill="none" xmlns="http://www.w3.org/2000/svg">
<path d="M23.954 2.83691C23.069 3.24872 22.124 3.52926 21.129 3.65736C22.143 3.01053 22.923 1.99106 23.292 0.774676C22.341 1.36222 21.287 1.78991 20.165 2.02811C19.269 1.01287 17.992 0.377686 16.574 0.377686C13.857 0.377686 11.654 2.70987 11.654 5.58303C11.654 5.9959 11.699 6.39289 11.781 6.77294C7.691 6.56862 4.066 4.48945 1.64 1.34634C1.213 2.11068 0.974 2.99888 0.974 3.96648C0.974 5.77676 1.844 7.3679 3.162 8.30268C2.355 8.27516 1.596 8.04014 0.934 7.65056V7.71513C0.934 10.24 2.627 12.3456 4.88 12.8252C4.467 12.9427 4.031 13.0062 3.584 13.0062C3.27 13.0062 2.969 12.9745 2.668 12.9152C3.299 14.9827 5.113 16.4902 7.272 16.5326C5.592 17.9289 3.463 18.761 1.17 18.761C0.78 18.761 0.391 18.7367 0 18.6901C2.189 20.1658 4.768 21.0286 7.557 21.0286C16.611 21.0286 21.556 13.093 21.556 6.22245C21.556 6.00119 21.556 5.77782 21.541 5.5555C22.502 4.8261 23.341 3.90402 24.001 2.85808L23.954 2.83691Z" fill="white"/>
</svg>
