<?xml version="1.0" standalone="no"?>
<!DOCTYPE svg PUBLIC "-//W3C//DTD SVG 20010904//EN"
 "http://www.w3.org/TR/2001/REC-SVG-20010904/DTD/svg10.dtd">
<svg version="1.0" xmlns="http://www.w3.org/2000/svg"
 width="640.000000pt" height="1280.000000pt" viewBox="0 0 640.000000 1280.000000"
 preserveAspectRatio="xMidYMid meet">
<g transform="translate(0.000000,1280.000000) scale(0.100000,-0.100000)"
fill="#000000" stroke="none">
<path d="M3149 12796 c-3 -3 -54 -12 -114 -21 -147 -22 -277 -65 -414 -136
-63 -33 -119 -58 -125 -56 -13 4 67 90 128 137 25 19 45 39 46 44 0 5 -37 6
-82 3 -126 -8 -182 -33 -388 -174 -88 -61 -134 -82 -147 -69 -4 3 24 38 62 76
37 39 65 73 62 76 -2 3 -33 -2 -68 -11 -145 -38 -281 -133 -315 -221 -9 -24
-15 -46 -13 -49 3 -2 31 32 64 76 32 44 67 85 77 90 16 8 18 5 18 -23 0 -18
-12 -58 -26 -88 -33 -73 -124 -210 -138 -210 -6 0 -21 18 -34 40 -12 22 -29
40 -37 40 -19 0 -19 -3 5 -50 11 -22 20 -55 20 -74 0 -43 -38 -93 -64 -83 -14
6 -16 15 -10 57 4 31 3 50 -3 50 -18 0 -33 -110 -33 -236 l0 -124 -27 -17
c-16 -9 -56 -43 -89 -73 -52 -49 -74 -61 -150 -85 -166 -53 -216 -88 -218
-151 -1 -47 18 -54 39 -15 22 43 48 42 40 -2 -8 -38 36 -127 63 -127 9 0 51 7
94 17 63 13 80 14 93 3 19 -16 19 -43 0 -80 -23 -45 -61 -68 -164 -100 -126
-39 -163 -62 -155 -94 4 -16 -4 -43 -25 -83 -17 -32 -31 -65 -31 -74 0 -8 15
-30 33 -48 l34 -32 64 10 c138 23 167 11 136 -55 -22 -45 -82 -87 -177 -123
-119 -46 -131 -53 -125 -69 5 -13 -26 -70 -65 -123 -19 -25 -45 -17 -65 20 -8
14 -14 20 -15 12 0 -7 19 -31 43 -53 23 -21 60 -56 82 -77 35 -33 44 -37 65
-29 31 12 126 4 146 -13 22 -18 17 -64 -11 -97 -34 -40 -101 -67 -246 -98
-128 -27 -176 -45 -186 -70 -8 -20 5 -30 19 -16 12 12 60 17 70 6 3 -3 1 -18
-5 -33 -9 -24 -6 -35 17 -76 20 -33 27 -57 24 -81 -4 -31 -2 -34 24 -34 15 0
61 18 103 40 74 39 115 50 115 31 0 -6 -5 -13 -11 -17 -6 -3 -20 -27 -32 -53
-17 -39 -20 -65 -19 -176 1 -133 -2 -165 -19 -165 -5 0 -9 8 -9 18 0 28 -37
80 -69 97 -17 8 -50 18 -74 21 -37 5 -47 2 -76 -22 -49 -41 -61 -79 -61 -190
l0 -96 114 7 c65 4 116 3 119 -2 3 -5 -3 -22 -14 -39 -11 -17 -19 -46 -19 -70
0 -23 -6 -46 -12 -51 -7 -6 -41 -15 -74 -22 -34 -6 -99 -24 -145 -40 l-84 -28
-3 -38 c-2 -21 4 -58 13 -83 12 -29 16 -61 13 -94 l-5 -51 68 6 c38 3 82 1 98
-4 58 -21 63 -100 8 -140 -29 -21 -115 -52 -205 -74 -41 -10 -76 -24 -79 -31
-3 -7 3 -43 12 -80 12 -47 15 -84 10 -126 l-7 -58 114 2 c85 2 119 -1 131 -11
20 -16 13 -31 -13 -31 -32 0 -50 -28 -50 -78 0 -26 -4 -52 -8 -58 -4 -7 -49
-13 -112 -16 -93 -3 -111 -7 -159 -33 -30 -17 -56 -35 -58 -40 -2 -6 10 -16
26 -22 38 -14 48 -50 33 -123 -22 -105 -25 -101 78 -98 74 3 92 0 107 -15 23
-23 13 -39 -60 -95 -69 -52 -76 -75 -54 -162 24 -91 23 -102 -8 -94 -25 6 -25
5 -25 -56 0 -66 -12 -100 -35 -100 -11 0 -15 -13 -15 -54 0 -54 -20 -90 -40
-70 -4 5 -10 67 -12 137 l-3 129 -33 29 c-19 17 -39 29 -45 27 -7 -2 -28 -35
-47 -73 l-35 -69 -3 -273 -3 -273 35 -15 c40 -17 40 -18 26 -45 -8 -15 -2 -22
48 -46 43 -21 91 -62 197 -169 146 -148 202 -198 152 -135 -15 19 -56 77 -89
128 -34 50 -67 92 -73 92 -17 0 -67 78 -63 98 2 9 13 18 25 20 12 2 27 10 33
18 22 26 37 15 61 -42 84 -209 308 -419 607 -572 120 -61 352 -165 357 -160 2
2 -53 35 -123 73 -265 146 -430 273 -504 388 -26 41 -32 59 -30 99 2 47 1 48
-27 48 -44 0 -55 21 -47 91 8 68 21 109 34 109 5 0 17 -21 27 -47 124 -330
341 -527 880 -800 105 -52 195 -100 202 -105 9 -8 8 -16 -7 -36 -24 -33 -40
-118 -85 -463 -36 -274 -64 -437 -91 -528 -21 -72 -38 -57 -31 28 5 63 -3 115
-15 95 -3 -5 -21 -61 -39 -124 -37 -130 -46 -264 -20 -310 14 -24 15 -20 32
75 18 110 26 135 41 135 6 0 7 -27 3 -72 -5 -57 -3 -82 10 -115 19 -48 39 -63
115 -88 67 -21 80 -31 80 -59 0 -11 19 -49 43 -84 l42 -63 12 30 c31 74 41 52
76 -164 64 -391 91 -653 132 -1280 21 -322 45 -627 51 -645 13 -38 89 100 109
198 12 58 12 75 -2 140 l-17 75 27 21 c33 26 34 49 11 192 -20 121 -15 159 21
150 22 -6 25 -3 25 20 0 25 -2 26 -43 20 -66 -10 -72 4 -46 100 26 91 29 189
15 449 l-9 170 -49 46 c-51 48 -67 97 -28 84 25 -8 26 11 4 136 -18 108 -10
160 37 240 37 63 49 130 48 264 -1 227 -30 229 -39 3 -5 -127 -9 -151 -26
-175 -33 -43 -41 -39 -41 24 1 41 -7 77 -27 123 -15 36 -30 91 -33 123 l-6 57
31 -2 c17 -2 32 2 34 7 2 6 -50 15 -128 21 -73 6 -137 15 -143 18 -30 19 2
154 56 234 19 28 38 52 41 52 2 0 15 -11 27 -25 22 -23 27 -24 107 -18 100 7
116 -3 91 -55 -20 -40 -10 -52 20 -24 29 27 70 42 116 42 63 0 67 -15 37 -122
-84 -299 -95 -543 -33 -696 12 -31 58 -113 102 -182 137 -218 168 -311 141
-416 -35 -133 -14 -527 65 -1249 16 -154 31 -281 33 -282 1 -1 8 129 14 290 7
160 17 389 23 507 6 118 9 371 7 562 l-4 347 -45 44 c-52 51 -139 147 -139
153 0 18 71 -7 178 -62 70 -37 151 -75 181 -85 68 -24 225 -26 298 -4 56 17
136 70 131 87 -3 7 -22 17 -44 24 -285 89 -377 129 -450 201 -55 53 -84 116
-91 194 -8 78 5 94 55 74 19 -9 57 -36 83 -60 35 -33 56 -45 79 -45 28 0 30 2
24 27 -10 42 -32 82 -79 143 -67 88 -78 115 -72 182 3 32 1 58 -4 58 -5 0 -19
-16 -31 -35 -23 -35 -41 -44 -53 -25 -10 16 23 128 57 194 20 37 66 94 118
147 71 71 101 94 182 134 83 41 108 49 170 52 72 5 135 -8 124 -26 -3 -4 -31
-11 -63 -13 -32 -3 -74 -13 -93 -21 l-35 -15 40 -17 c22 -10 103 -30 180 -46
77 -15 154 -30 170 -34 l30 -6 -26 23 c-41 36 -51 61 -33 86 14 20 13 23 -18
42 -86 52 -256 86 -388 76 -207 -14 -320 -94 -320 -226 0 -50 -4 -61 -41 -110
-83 -109 -125 -230 -136 -387 -19 -286 105 -509 320 -575 82 -25 74 -38 -24
-38 -62 0 -67 2 -100 36 -18 20 -70 63 -114 95 -117 87 -172 184 -162 287 21
224 175 968 251 1221 17 56 26 108 26 154 0 77 20 124 57 133 34 9 48 0 71
-46 21 -43 25 -43 36 3 10 42 41 51 112 33 32 -8 97 -20 144 -27 100 -13 400
-16 515 -5 l80 9 -90 24 c-104 27 -295 115 -295 135 0 8 29 43 65 78 36 35 65
68 65 72 0 4 -28 -6 -62 -22 -68 -33 -98 -37 -98 -17 0 9 -9 12 -27 10 -21 -3
-47 9 -105 47 -76 52 -77 52 -181 60 -82 7 -125 17 -203 46 -227 84 -441 210
-559 329 -77 76 -135 175 -135 231 0 18 -5 36 -11 40 -7 4 -9 23 -5 52 5 36 4
44 -6 34 -24 -24 -29 -11 -23 51 14 135 -37 290 -125 378 -60 60 -99 80 -171
86 -49 5 -67 2 -112 -21 -71 -34 -93 -59 -80 -88 10 -23 10 -22 26 9 20 37 63
73 88 73 16 0 12 -13 -30 -92 -70 -132 -85 -190 -85 -328 0 -120 19 -210 65
-315 27 -61 43 -59 92 9 10 13 20 16 35 12 32 -10 27 -26 -19 -68 -46 -42 -44
-62 5 -52 28 5 38 1 72 -32 56 -53 146 -109 334 -209 91 -48 186 -102 211
-120 32 -23 51 -30 60 -24 8 5 26 9 41 9 21 0 29 -6 34 -23 6 -27 41 -46 129
-71 33 -10 75 -26 93 -37 l34 -19 64 30 64 31 30 -21 c25 -18 38 -20 90 -14
51 6 60 4 60 -10 0 -40 -173 -96 -300 -96 -181 0 -332 49 -640 206 -124 63
-212 104 -195 92 61 -47 95 -80 95 -94 0 -19 -1 -19 -98 26 -155 73 -312 184
-389 277 -79 94 -147 233 -126 254 12 12 93 -84 93 -111 0 -9 12 -22 26 -29
22 -10 25 -9 20 6 -2 10 -12 44 -20 76 -10 33 -22 57 -30 57 -10 0 -15 24 -18
98 -5 110 -23 162 -95 275 -24 37 -43 73 -43 79 0 23 43 193 51 202 18 21 39
-17 39 -70 0 -30 4 -54 10 -54 14 0 25 66 25 150 0 85 -26 152 -88 230 -37 46
-39 60 -6 60 25 0 24 9 -7 41 -14 15 -23 32 -20 37 32 52 338 65 525 24 57
-13 134 -34 170 -47 37 -13 104 -26 151 -30 179 -13 320 -44 685 -150 354
-103 475 -130 672 -150 l62 -6 29 58 c16 32 35 76 41 98 23 75 21 72 42 46 26
-31 24 -75 -6 -140 -14 -30 -24 -56 -21 -58 7 -7 54 60 71 100 16 38 20 133 7
153 -13 21 -590 190 -897 264 -191 46 -270 62 -479 100 -164 30 -176 35 -232
98 l-22 24 -68 -17 c-130 -33 -346 7 -415 76 -15 15 -24 17 -39 9 -10 -5 -35
-10 -55 -10 -30 0 -38 5 -52 34 -21 45 -12 63 39 86 69 30 169 43 296 37 130
-5 208 -27 278 -77 41 -29 42 -29 59 -10 11 12 31 20 50 20 95 0 416 -75 760
-179 386 -116 624 -171 737 -171 31 0 41 -4 45 -20 7 -27 17 -25 46 10 30 35
62 117 72 181 l7 46 -108 47 c-444 195 -968 335 -1742 465 -129 22 -236 42
-239 45 -3 3 1 28 8 55 9 38 10 54 2 62 -22 22 -43 2 -43 -40 0 -48 -18 -61
-82 -61 -68 0 -114 17 -145 54 -76 92 -93 116 -81 117 76 4 173 -6 223 -23 55
-18 70 -19 201 -9 331 24 592 -23 1254 -228 411 -126 558 -164 738 -186 l52
-7 25 54 c29 63 43 165 27 195 -19 35 -357 168 -652 257 -194 59 -464 126
-685 171 -99 20 -190 38 -202 40 -16 4 -27 20 -43 69 -24 74 -59 117 -45 56 4
-19 8 -46 9 -60 1 -22 -3 -25 -29 -23 -306 23 -347 30 -383 63 -25 23 -27 51
-11 101 24 69 31 72 152 65 255 -15 560 -70 857 -155 241 -69 608 -188 768
-250 129 -50 135 -52 206 -45 48 4 80 3 94 -5 19 -10 23 -8 36 17 14 27 56
178 56 201 0 14 -111 96 -170 126 -86 43 -243 94 -770 246 -170 50 -352 93
-472 114 -65 11 -104 24 -130 42 -21 14 -38 28 -38 32 0 3 -66 6 -147 7 -134
0 -155 3 -222 27 -41 14 -78 30 -82 34 -11 11 16 134 33 144 22 14 253 10 367
-6 196 -29 411 -87 916 -249 351 -113 555 -166 728 -191 44 -6 48 -5 57 20 17
45 29 146 23 193 l-6 45 -81 38 c-194 91 -449 176 -991 333 -347 100 -514 153
-531 167 -12 10 -19 8 -35 -9 -43 -47 -140 -42 -279 15 -108 43 -120 61 -78
122 57 84 98 92 305 60 151 -23 156 -23 216 -6 93 26 92 27 89 -10 -3 -30 -1
-33 24 -33 15 0 56 -12 92 -26 53 -21 69 -24 94 -15 41 15 40 15 33 -18 -6
-29 -5 -29 72 -55 43 -14 152 -46 243 -71 91 -26 300 -90 465 -144 352 -116
412 -131 426 -110 22 35 43 130 43 199 l1 74 -215 92 c-404 172 -748 285
-1095 358 -132 28 -173 41 -232 74 l-72 40 -43 -15 c-79 -28 -268 6 -321 56
-16 16 -17 23 -7 64 7 25 21 55 32 67 19 20 26 21 137 15 367 -21 636 -87
1206 -300 403 -150 586 -210 596 -193 5 7 16 38 25 68 19 65 38 90 70 90 34 0
38 15 18 70 -18 49 -18 49 -122 96 -156 69 -436 171 -780 284 -169 56 -385
128 -481 162 l-174 60 -73 -11 c-113 -19 -316 17 -363 64 -13 13 -13 17 1 32
9 10 23 35 31 55 23 55 44 62 172 55 329 -19 585 -87 1205 -320 273 -103 521
-183 621 -201 33 -6 36 -4 53 31 24 49 32 169 14 203 -30 56 -708 347 -1051
450 -231 70 -540 130 -752 146 -105 8 -119 14 -141 56 -15 28 -16 61 -9 291
l7 260 44 54 c36 43 44 61 44 93 0 34 3 40 21 40 18 0 20 2 8 16 -10 13 -10
20 4 44 9 15 20 45 25 66 8 38 9 39 62 45 30 3 71 16 90 27 l35 22 -51 0 c-28
0 -53 -2 -55 -4z"/>
<path d="M3433 12726 c-40 -7 -76 -16 -80 -20 -8 -8 38 -3 91 10 26 6 27 5 18
-13 -6 -11 -76 -87 -155 -170 -79 -82 -158 -171 -176 -196 -18 -26 -36 -47
-42 -47 -19 0 -21 31 -5 73 18 49 19 57 7 57 -13 0 -63 -120 -69 -166 -4 -36
0 -45 24 -68 48 -44 102 -59 198 -54 75 4 95 9 168 45 96 48 130 80 147 142
18 61 55 115 97 137 33 18 36 18 82 2 27 -10 51 -13 56 -8 13 13 -2 30 -27 30
-24 0 -67 26 -67 40 0 5 7 16 16 24 22 23 210 21 404 -4 85 -11 196 -20 245
-19 l90 1 -145 49 c-443 152 -662 191 -877 155z"/>
<path d="M3281 12621 c-28 -39 -26 -43 9 -23 16 9 30 25 30 35 0 25 -16 21
-39 -12z"/>
<path d="M3080 12605 c-14 -8 -20 -14 -14 -15 5 0 19 7 30 15 24 18 16 19 -16
0z"/>
<path d="M1644 12468 c-44 -30 -134 -136 -179 -211 -16 -26 -16 -27 9 -37 31
-11 32 -24 6 -90 -21 -54 -26 -100 -11 -100 15 0 73 102 162 285 46 94 85 173
87 178 9 17 -30 4 -74 -25z"/>
<path d="M3880 12440 c-66 -7 -59 -11 97 -49 152 -36 225 -69 284 -127 42 -41
48 -44 73 -34 15 5 37 10 48 10 18 0 20 -4 14 -30 -5 -27 1 -38 54 -95 35 -37
63 -78 66 -95 7 -31 12 -34 79 -45 66 -11 84 -28 78 -73 -4 -33 -2 -41 22 -56
20 -13 25 -23 21 -40 -5 -20 0 -25 33 -38 55 -22 251 -151 248 -163 -2 -5 -13
-11 -25 -13 -27 -4 -28 -14 -2 -30 11 -6 32 -31 46 -55 15 -23 38 -51 52 -63
25 -21 25 -21 9 -63 -23 -55 -21 -77 8 -168 14 -43 24 -86 21 -95 -3 -12 2
-18 14 -18 12 0 22 12 31 38 6 20 16 43 22 50 13 16 46 15 53 -2 8 -20 -43
-313 -67 -388 -11 -35 -27 -69 -34 -77 -12 -12 -16 -10 -25 15 -14 35 -8 76
25 179 26 80 27 118 1 128 -10 4 -15 -9 -18 -57 -6 -64 -27 -117 -81 -195
l-30 -44 23 -17 24 -18 -20 -98 c-14 -75 -19 -142 -19 -271 0 -135 -3 -173
-13 -173 -7 0 -17 10 -21 23 l-9 22 -5 -25 c-3 -14 -22 -100 -42 -192 -21 -92
-35 -175 -31 -183 3 -8 18 -20 33 -27 63 -27 90 -71 59 -97 -11 -9 -20 -6 -44
14 -38 32 -55 32 -81 -1 -23 -30 -37 -95 -46 -219 -4 -54 -24 -159 -51 -263
-31 -122 -44 -191 -43 -235 1 -59 2 -60 10 -22 4 22 15 82 25 134 9 51 40 170
69 265 29 94 56 186 60 204 3 17 11 32 16 32 14 0 11 -101 -12 -295 -37 -325
-105 -685 -182 -960 -33 -114 -33 -120 -16 -129 26 -12 24 -34 -3 -38 -26 -4
-34 -31 -79 -273 -29 -158 -31 -182 -27 -337 3 -92 2 -172 -2 -178 -4 -7 -18
-10 -31 -8 -21 3 -24 -2 -32 -47 -10 -64 -1 -167 23 -261 20 -76 86 -240 101
-250 14 -8 89 30 149 75 65 50 145 76 209 68 25 -3 87 -22 138 -41 51 -20 104
-36 118 -36 24 0 25 2 25 59 0 33 5 63 11 66 6 4 31 1 56 -5 41 -12 46 -11 65
8 20 19 20 23 7 82 -7 34 -18 65 -24 70 -5 4 -71 31 -147 58 -138 50 -228 101
-228 128 0 11 9 13 38 8 34 -5 38 -4 48 24 6 16 23 38 38 47 25 17 28 16 79
-5 28 -13 82 -33 118 -45 l67 -23 6 39 c8 49 37 79 75 79 40 0 45 12 31 71
-16 66 -62 113 -165 169 -141 76 -171 107 -114 120 20 5 25 13 29 50 7 60 23
61 128 10 94 -45 112 -48 129 -21 6 10 32 31 57 47 52 33 55 45 25 115 -12 27
-19 58 -16 69 5 18 -10 28 -101 74 -100 51 -152 86 -152 105 0 4 18 22 40 40
27 21 40 40 40 56 0 13 4 27 10 30 5 3 45 -12 88 -35 43 -22 83 -40 89 -40 6
0 8 11 5 25 -5 30 13 55 40 55 16 0 19 -5 15 -25 -3 -20 -1 -25 11 -23 20 4
30 38 31 103 1 94 -47 159 -177 240 -34 21 -62 41 -62 45 0 4 7 13 15 20 9 8
15 30 15 60 0 82 22 84 135 16 69 -42 95 -46 95 -15 0 22 -1 22 67 3 21 -6 21
-5 17 93 -8 162 -5 155 -77 189 -69 33 -147 103 -147 134 0 16 7 20 30 20 33
0 40 19 15 40 -17 14 -20 56 -5 65 5 3 32 -10 59 -29 49 -33 188 -93 197 -84
11 11 24 119 24 200 l0 88 -99 64 c-83 54 -141 107 -141 130 0 3 14 6 30 6 49
0 48 25 -4 80 -25 27 -46 54 -46 60 0 27 35 19 102 -24 87 -56 110 -63 154
-47 45 16 54 8 48 -42 -6 -48 6 -73 30 -64 14 6 16 21 14 101 -3 83 -1 97 19
123 l21 30 -25 31 c-13 18 -70 64 -126 104 -56 39 -121 89 -144 111 -63 60
-41 72 37 20 43 -28 50 -29 50 -3 0 31 -24 71 -69 115 -41 39 -54 75 -27 75 7
0 58 -32 112 -71 95 -68 99 -69 102 -45 4 32 26 49 52 41 21 -7 52 -59 64
-108 9 -37 29 -30 40 16 13 49 -3 96 -60 186 -56 87 -50 106 20 60 26 -17 49
-29 52 -26 10 9 -101 110 -187 171 -178 127 -219 158 -219 172 0 22 12 17 101
-41 80 -54 115 -65 113 -35 -3 29 -111 375 -131 421 -11 25 -79 149 -151 275
-255 449 -338 532 -638 645 -137 51 -164 65 -293 153 -59 40 -132 83 -164 94
-76 29 -433 99 -527 104 -41 3 -100 2 -130 -2z"/>
<path d="M1374 12034 c3 -9 6 -21 6 -27 0 -8 3 -8 11 0 13 13 5 43 -12 43 -6
0 -8 -7 -5 -16z"/>
<path d="M1020 11061 c0 -17 5 -33 10 -36 6 -4 10 8 10 29 0 20 -4 36 -10 36
-5 0 -10 -13 -10 -29z"/>
<path d="M4727 10512 c-16 -17 -37 -65 -37 -83 0 -24 32 -5 50 31 31 61 24 93
-13 52z"/>
<path d="M4632 8688 c-29 -70 -39 -128 -23 -128 21 0 52 87 49 137 l-3 47 -23
-56z"/>
<path d="M4406 8641 c-15 -16 -15 -19 -1 -31 13 -11 19 -11 31 2 8 8 12 22 8
31 -8 22 -17 21 -38 -2z"/>
<path d="M4580 8441 c0 -37 -13 -149 -30 -247 -16 -98 -30 -199 -29 -224 l1
-45 13 49 c27 97 74 415 75 502 0 12 -7 24 -15 28 -12 4 -15 -6 -15 -63z"/>
<path d="M4420 8479 c-18 -33 -6 -42 13 -9 10 16 14 30 8 30 -6 0 -15 -9 -21
-21z"/>
<path d="M426 8173 c-12 -12 -6 -33 9 -33 8 0 15 6 15 14 0 17 -14 28 -24 19z"/>
<path d="M4462 7730 c0 -19 2 -27 5 -17 2 9 2 25 0 35 -3 9 -5 1 -5 -18z"/>
<path d="M2258 7359 c-15 -9 -11 -16 35 -66 97 -104 128 -133 142 -133 33 0
-19 156 -63 190 -27 22 -85 26 -114 9z"/>
<path d="M1896 7145 c-3 -8 -1 -15 4 -15 6 0 10 7 10 15 0 8 -2 15 -4 15 -2 0
-6 -7 -10 -15z"/>
<path d="M2710 6668 c0 -18 18 -34 28 -24 3 4 -2 14 -11 23 -16 16 -17 16 -17
1z"/>
<path d="M3312 4958 c-26 -29 -17 -46 43 -85 25 -15 51 -41 59 -58 17 -33 11
-49 -37 -104 -67 -78 -107 -214 -107 -367 0 -191 67 -326 190 -384 51 -24 52
-24 113 -7 34 9 102 27 150 38 71 18 88 25 84 38 -32 109 -32 110 -13 146 l19
35 -41 57 c-23 32 -108 156 -188 276 -139 208 -145 219 -129 237 9 10 38 26
63 34 174 60 328 -51 394 -284 l18 -65 -4 80 c-5 96 -31 171 -86 248 -55 77
-97 101 -164 94 -28 -3 -73 -16 -100 -29 l-48 -23 -49 54 c-83 93 -127 111
-167 69z"/>
<path d="M2412 4745 c13 -19 25 -30 26 -24 5 13 -25 59 -38 59 -6 0 0 -16 12
-35z"/>
<path d="M2367 2134 c-13 -13 -7 -81 7 -93 21 -17 34 65 14 85 -8 8 -17 11
-21 8z"/>
<path d="M4186 2055 c17 -27 44 -34 44 -12 0 19 -21 37 -42 37 -17 0 -17 -1
-2 -25z"/>
<path d="M2902 1753 c2 -47 -1 -64 -20 -90 -27 -39 -28 -60 -2 -68 38 -12 53
13 46 75 -4 33 -2 69 5 89 9 27 9 35 -2 42 -26 16 -29 9 -27 -48z"/>
<path d="M2530 1731 c0 -6 5 -13 10 -16 6 -3 10 1 10 9 0 9 -4 16 -10 16 -5 0
-10 -4 -10 -9z"/>
<path d="M2230 1727 c0 -15 29 -64 46 -78 14 -11 13 -5 -6 26 -26 45 -40 63
-40 52z"/>
<path d="M2401 1683 c3 -58 1 -63 -32 -77 l-31 -13 33 -20 c39 -24 136 -60
143 -53 2 3 2 17 -1 31 -4 21 -9 25 -34 21 -49 -7 -81 6 -77 31 2 16 13 24 39
31 l36 9 -25 38 c-33 51 -54 51 -51 2z"/>
<path d="M3478 1563 c7 -3 16 -2 19 1 4 3 -2 6 -13 5 -11 0 -14 -3 -6 -6z"/>
<path d="M2300 1513 c0 -5 18 -15 39 -24 43 -18 80 -64 64 -80 -6 -6 -26 2
-56 21 -56 35 -104 51 -92 29 4 -8 16 -23 26 -34 28 -32 27 -57 -1 -72 -36
-18 -31 -34 18 -61 74 -41 85 -100 16 -87 l-36 6 7 -53 c4 -29 14 -73 21 -98
20 -65 18 -72 -13 -64 -25 7 -26 6 -20 -27 5 -24 24 -50 66 -89 32 -30 62 -66
66 -79 9 -31 -7 -46 -34 -32 -13 8 -21 8 -21 2 0 -21 106 -70 217 -101 63 -17
122 -34 130 -37 14 -5 15 0 10 32 -7 42 6 75 28 75 10 0 15 -10 15 -30 0 -16
6 -33 14 -37 7 -4 18 -18 25 -30 11 -21 18 -23 104 -23 92 0 326 15 403 25 40
6 42 8 53 51 l12 46 42 -6 c23 -3 43 -5 45 -5 1 -1 2 -9 2 -20 0 -17 3 -18 56
-5 73 17 82 26 59 60 -17 26 -17 28 1 41 10 7 25 11 34 7 8 -3 31 -8 50 -11
35 -5 36 -4 77 68 23 41 54 108 69 149 24 65 28 90 28 190 1 104 -2 120 -25
170 -14 30 -40 70 -56 88 -47 49 -99 46 -357 -22 -54 -14 -115 -26 -136 -26
-35 0 -38 -2 -43 -36 -8 -47 -25 -68 -43 -53 -8 6 -14 21 -14 34 0 22 0 22
-253 29 -296 8 -357 18 -482 81 -87 44 -115 53 -115 38z"/>
<path d="M2873 1493 c9 -2 23 -2 30 0 6 3 -1 5 -18 5 -16 0 -22 -2 -12 -5z"/>
<path d="M4576 754 c-29 -41 -96 -64 -209 -75 -133 -13 -177 -27 -327 -108
-69 -37 -171 -87 -228 -111 -102 -43 -191 -105 -175 -121 16 -16 208 -39 328
-39 247 1 444 51 571 146 72 54 95 91 106 176 17 119 -21 194 -66 132z"/>
<path d="M2453 603 c8 -10 25 -39 36 -65 19 -44 54 -77 64 -61 9 15 -21 85
-49 114 -31 33 -80 44 -51 12z"/>
<path d="M3494 314 c-114 -66 -344 -90 -707 -75 -132 6 -243 8 -248 5 -15 -9
21 -52 69 -83 70 -44 155 -66 203 -52 22 7 40 19 44 31 9 29 65 28 65 0 0 -12
7 -32 16 -45 15 -23 15 -27 1 -49 -15 -22 -14 -24 9 -35 14 -6 43 -11 64 -11
l39 0 3 78 3 77 33 10 c17 5 32 15 32 22 0 22 44 37 69 24 16 -9 20 -18 15
-36 -6 -25 4 -33 22 -15 15 15 143 60 172 60 16 0 33 -5 39 -11 17 -17 137 51
141 80 4 24 -14 52 -32 50 -6 -1 -30 -12 -52 -25z"/>
<path d="M3391 171 c-33 -18 -34 -19 -12 -26 16 -5 26 -2 36 12 13 16 19 34
13 33 -2 -1 -18 -9 -37 -19z"/>
<path d="M2620 94 c0 -12 112 -55 133 -52 16 2 -2 11 -55 30 -43 14 -78 24
-78 22z"/>
</g>
</svg>
