<svg xmlns="http://www.w3.org/2000/svg" width="68.626" height="39.634" viewBox="0 0 68.626 39.634"><g transform="translate(-1479.375 -1964.426)"><g transform="translate(1479.375 1964.426)"><path d="M16153.611,11379.286c.188,2.33.136,4.682.159,7.015.028,2.753.044,5.5.07,8.256.014,1.18.113,2.38.014,3.558-.014.125-.241.124-.255,0a26.535,26.535,0,0,1-.079-3.078c-.008-1.31-.017-2.624-.022-3.937-.016-2.753-.01-5.5-.02-8.255,0-1.186-.018-2.373.03-3.559,0-.048.095-.048.1,0Z" transform="translate(-16130.841 -11372.974)" fill="#204d42"/><path d="M10214.738,14375.194c2.579,2.134,5.017,4.364,7.354,6.648,1.1,1.074,2.167,2.16,3.229,3.247,1.167,1.2,2.378,2.382,3.459,3.62.078.089-.107.2-.2.115-1.193-1.135-2.278-2.342-3.413-3.509q-1.6-1.652-3.243-3.291c-2.328-2.316-4.768-4.566-7.259-6.775-.044-.039.025-.095.069-.056h0Z" transform="translate(-10209.873 -14362.095)" fill="#204d42"/><path d="M10790.756,20394.648a20.686,20.686,0,0,1-2.719-.742c-.85-.242-1.707-.463-2.572-.672s-1.734-.41-2.613-.582c-.919-.182-1.923-.27-2.806-.531-.078-.025-.073-.119.02-.119a15.176,15.176,0,0,1,2.679.416c.938.186,1.871.4,2.79.627.892.221,1.774.465,2.646.727a13.673,13.673,0,0,1,2.575.871s0,.006,0,.006Z" transform="translate(-10773.512 -20365.236)" fill="#204d42"/><path d="M17563.281,14311.2c-1.186,1.2-2.539,2.307-3.789,3.466-1.174,1.093-2.334,2.193-3.467,3.308-2.352,2.3-4.561,4.7-6.953,6.978-.123.118-.391-.039-.277-.161,2.205-2.363,4.58-4.651,6.928-6.932,1.129-1.095,2.273-2.181,3.449-3.248a51.069,51.069,0,0,1,4.023-3.464c.045-.032.123.01.088.049h0Z" transform="translate(-17521.941 -14298.196)" fill="#204d42"/><path d="M17751.988,21511.6a6.212,6.212,0,0,0-.666.189,1.51,1.51,0,0,1-.525.143c-.072,0-.111-.066-.061-.1a1.773,1.773,0,0,1,.475-.207,7.065,7.065,0,0,1,.709-.209c.154-.041.221.143.068.186h0Z" transform="translate(-17723.279 -21482.105)" fill="#204d42"/><path d="M17329.539,22792.119c-.443-.176-.883-.355-1.332-.527-.365-.145-.762-.248-1.121-.412-.064-.029-.021-.111.055-.094a13.142,13.142,0,0,1,2.463.953c.066.031.01.111-.064.082h0Z" transform="translate(-17300.895 -22758.869)" fill="#204d42"/><path d="M13386.948,22669.74a17.451,17.451,0,0,1,2.654-1.4,14.314,14.314,0,0,1,2.955-1.014c.084-.012.126.07.058.1a12.664,12.664,0,0,1-1.554.568q-.681.237-1.337.508a21.5,21.5,0,0,0-2.684,1.328c-.071.041-.165-.049-.1-.094h.006Z" transform="translate(-13372.604 -22635.393)" fill="#204d42"/><path d="M15967.907,8645.923a3.183,3.183,0,0,1,.247-1.918c.369-1,.782-2,1.16-2.994a30.182,30.182,0,0,0,1.655-5.625,23.55,23.55,0,0,0,.228-5.5,17.2,17.2,0,0,0-1.183-5.527,20.121,20.121,0,0,0-1.712-3.246,18.353,18.353,0,0,0-1.044-1.521,4.144,4.144,0,0,0-.364-.413,1.776,1.776,0,0,0-.233-.2c-.087-.061-.141-.066-.069-.068-.794.048-.79-.889,0-.937.924-.056,1.6.937,1.966,1.447a28.393,28.393,0,0,1,1.976,3.109,16.529,16.529,0,0,1,1.8,5.738,23.789,23.789,0,0,1-1.534,11.624,32.185,32.185,0,0,1-1.6,3.712c-.193.363-.408.722-.582,1.1a5.5,5.5,0,0,1-.616,1.233c-.023.027-.088.025-.1-.008h0Z" transform="translate(-15943.929 -8617.972)" fill="#204d42"/><path d="M14072.719,8653.434a7.374,7.374,0,0,1-1.042-1.819c-.536-1.024-.982-2.069-1.426-3.121a33.038,33.038,0,0,1-2-5.9,18.841,18.841,0,0,1-.37-5.718,17.267,17.267,0,0,1,1.96-6.212c.683-1.322,1.459-2.617,2.233-3.91a2.586,2.586,0,0,1,1.456-1.147,1.768,1.768,0,0,1,1.892.518c.449.5-.624.969-1.071.473-.318-.35-.837.112-1.025.357a13.424,13.424,0,0,0-1,1.728c-.577,1.012-1.143,2.025-1.63,3.063a15.747,15.747,0,0,0-1.582,5.7,19.422,19.422,0,0,0,.3,5.168,34.92,34.92,0,0,0,1.689,5.42c.432,1.126.9,2.242,1.3,3.372a4.6,4.6,0,0,1,.419,2.009c-.006.041-.067.053-.1.021h0Z" transform="translate(-14051.443 -8625.502)" fill="#204d42"/><path d="M11505.985,22137.244a9.57,9.57,0,0,1-4.667,3.234,45.744,45.744,0,0,1-6.408,1.354c-.469.1-.917.219-1.376.34a1.144,1.144,0,0,1-1.114-.166c-.558-.484.116-.916.494-1.3.5-.521.967-1.066,1.489-1.584a14.564,14.564,0,0,1,2.038-1.525,8.742,8.742,0,0,1,2.68-1.113,10.766,10.766,0,0,1,3.741-.453c.313.033.276.395,0,.449-.948.184-1.918.26-2.858.48a11.684,11.684,0,0,0-2.457.824,12.259,12.259,0,0,0-3.359,2.588c-.346.359-.717.7-1.073,1.047-.057.053-.168.133-.114.205.07.094.121.031.247-.006.183-.055.361-.109.544-.156.4-.1.8-.174,1.212-.254a43.576,43.576,0,0,0,5.749-1.213,15.912,15.912,0,0,0,4.8-3c.226-.176.582.047.435.256h0Z" transform="translate(-11483.587 -22105.268)" fill="#204d42"/><path d="M15737.382,22544.967a12.674,12.674,0,0,1,.261,1.9c.069.576.139,1.16.227,1.732.058.4.131.795.211,1.188a2.041,2.041,0,0,1,.086.6c-.058.486-.46.686-1.061.689s-1.5.172-1.889-.266-.062-1.377,0-1.877a34.9,34.9,0,0,0,.311-3.729c0-.324.668-.328.668,0a32.278,32.278,0,0,1-.183,3.629c-.042.355-.084.707-.134,1.063a1.861,1.861,0,0,0-.045.381c.008.344.445.223.809.211.3-.01.716.063.764-.223a1.1,1.1,0,0,0-.052-.293c-.061-.367-.114-.738-.168-1.1-.089-.619-.171-1.24-.205-1.861a6.219,6.219,0,0,1,.078-2.045c.03-.123.291-.121.324,0Z" transform="translate(-15713.651 -22513.219)" fill="#204d42"/><path d="M17008.486,22077.193a9.377,9.377,0,0,1,1.8-.016,14.534,14.534,0,0,0,1.49-.055c.5-.041.508.564,0,.6a11.091,11.091,0,0,1-3.289-.158c-.227-.053-.258-.326,0-.367Z" transform="translate(-16983.104 -22046.525)" fill="#204d42"/><path d="M16987.8,22095.156c-.471-.119-.939-.234-1.426-.311-.559-.086-1.139-.109-1.689-.215-.285-.057-.3-.406,0-.453a9.188,9.188,0,0,1,3.348.336c.541.127.309.777-.232.643Z" transform="translate(-16959.338 -22063.496)" fill="#204d42"/><path d="M16399.32,22544.857a17.936,17.936,0,0,0,2.627,1.787,19.71,19.71,0,0,0,3.041,1.287c.484.16.066.693-.418.539-2.2-.732-4.518-1.7-5.686-3.361-.143-.207.211-.43.436-.252Z" transform="translate(-16375.481 -22513.137)" fill="#204d42"/><path d="M17053.875,20315.447a30.5,30.5,0,0,1-4.238,2.109c-.348.137-.723-.205-.43-.428,1.166-.871,2.6-1.506,3.85-2.3.572-.361,1.391.264.816.617h0Z" transform="translate(-17023.777 -20288.133)" fill="#204d42"/><path d="M8644.358,19533.359a23.284,23.284,0,0,1-4.536.09,35.317,35.317,0,0,1-4.067-.367,28.15,28.15,0,0,1-4.291-1.025,27.225,27.225,0,0,1-3.971-1.674c-.716-.355-1.415-.729-2.123-1.1-.442-.232-.96-.42-1.027-.873-.167-1.064,2.271-1.119,3.168-1.232a23.528,23.528,0,0,1,8.844.563c2.888.742,5.979,1.736,7.943,3.574.094.082-.021.209-.157.154-1.1-.42-2.083-.967-3.126-1.455a26.758,26.758,0,0,0-11.541-2.355,16.082,16.082,0,0,0-3.9.484c-.36.105-.418.205-.079.371.227.109.451.219.674.334.678.359,1.359.705,2.054,1.043a27.381,27.381,0,0,0,7.314,2.471,32.809,32.809,0,0,0,4.212.436,34.19,34.19,0,0,1,4.617.275.142.142,0,0,1,0,.283h0Z" transform="translate(-8624.335 -19502.199)" fill="#204d42"/><path d="M9276.393,13466.667a71.4,71.4,0,0,0-3.845-6.7,19.455,19.455,0,0,0-7.111-5.985,25.176,25.176,0,0,0-4.709-1.731c-.4-.107-.8-.218-1.213-.295-.253-.049-.593-.127-.786.064-.14.134-.1.386-.092.543a9.433,9.433,0,0,0,.268,1.794,15.6,15.6,0,0,0,1.791,3.8,20.858,20.858,0,0,0,2.544,3.539,19.14,19.14,0,0,0,7.56,4.93c.535.2.063.807-.469.606a20.106,20.106,0,0,1-7.258-4.51,19.739,19.739,0,0,1-2.947-3.87c-.392-.658-.748-1.327-1.085-2a13.671,13.671,0,0,1-.888-1.989,10.266,10.266,0,0,1-.354-2c-.053-.566-.072-1.3.77-1.542a5.317,5.317,0,0,1,2.625.375c.867.239,1.721.513,2.548.823a20.363,20.363,0,0,1,8.525,5.864,21.144,21.144,0,0,1,4.316,8.227c.021.081-.142.149-.191.062h0Z" transform="translate(-9255.872 -13440.263)" fill="#204d42"/><path d="M16807.523,13468.293a18.36,18.36,0,0,1,2.658-6,20.266,20.266,0,0,1,4.975-5.306,23.449,23.449,0,0,1,7.365-3.5c1-.291,3.074-1.083,3.686.023a2.328,2.328,0,0,1,.061,1.423,9.931,9.931,0,0,1-.285,1.5,11.782,11.782,0,0,1-.838,1.921c-.318.652-.66,1.306-1.029,1.943a20.581,20.581,0,0,1-2.754,3.761c-.344.368-1.148.011-.8-.355a23.615,23.615,0,0,0,4.1-6.275,8.7,8.7,0,0,0,.791-2.944,1.3,1.3,0,0,0,0-.66c-.152-.312-.5-.258-.85-.192a21.17,21.17,0,0,0-2.084.541,22.075,22.075,0,0,0-6.822,3.3,19.825,19.825,0,0,0-4.674,4.948c-1.295,1.919-2.07,3.988-3.3,5.928-.053.09-.209.021-.193-.062h0Z" transform="translate(-16782.922 -13441.953)" fill="#204d42"/></g><text transform="translate(1512.001 2000.061)" fill="#204d42" font-size="16" font-family="Roboto-Medium, Roboto" font-weight="500" letter-spacing="0.041em"><tspan x="0" y="0">Chat</tspan></text></g></svg>