<svg xmlns="http://www.w3.org/2000/svg" width="37.043" height="52.524" viewBox="0 0 37.043 52.524"><g transform="translate(-339.245 -1940.061)"><g transform="translate(339.245 1940.062)"><path d="M5097.44,9916l-7.862,3.412-9.206,25.216a.132.132,0,0,0,.159.171l7.171-2.112,4.112,6.232a.13.13,0,0,0,.229-.028l9.207-25.216-3.813-7.675Z" transform="translate(-5077.705 -9896.455)" fill="#25aef2"/><path d="M5091.56,14896.982a.141.141,0,0,1-.109-.058l-4.112-6.233-7.172,2.11a.1.1,0,0,1-.037.009.135.135,0,0,1-.13-.132.123.123,0,0,1,.009-.045l4.979-13.633a18.449,18.449,0,0,0,9.889,3.5l-.581,7.24,2.064-5.649h0l-4.677,12.806a.129.129,0,0,1-.121.086Z" transform="translate(-5077.341 -14844.461)" fill="#1592ec"/><path d="M9812,16045.237l.579-7.238c.251.013.5.024.757.026l.726,1.563Z" transform="translate(-9795.045 -15999.956)" fill="#0b7bdc"/><path d="M8734.543,10120.972l-11.272-24.238-8.125-2.733-3.145,7.973,11.267,24.226a.192.192,0,0,0,.344.01l3.376-6.3,7.348,1.332A.191.191,0,0,0,8734.543,10120.972Z" transform="translate(-8698.368 -10073.916)" fill="#25aef2"/><path d="M6731,14612.806h0l.293-.808h0Z" transform="translate(-6723.353 -14578.265)" fill="#bae7f5"/><path d="M6739.889,14616.308a18.423,18.423,0,0,1-9.889-3.5l.3-.808a18.426,18.426,0,0,0,9.675,3.3Z" transform="translate(-6722.356 -14578.265)" fill="#0f84e3"/><path d="M14049.347,14453.748l-.347-.748h0Z" transform="translate(-14019.242 -14419.746)" fill="#bae7f5"/><path d="M10004.756,15704.034c-.255,0-.5-.01-.753-.023l.08-1.013a.215.215,0,0,1,.048,0h0l.073,0h.018c.017,0,.036.007.055.007h0l.478,1.027Z" transform="translate(-9986.469 -15665.968)" fill="#086fd3"/><path d="M10096.706,14452.828h-.229l-.479-1.031h.719a18.425,18.425,0,0,0,11.236-3.8l.347.746a18.448,18.448,0,0,1-11.583,4.07Z" transform="translate(-10078.185 -14414.761)" fill="#1b9de8"/><path d="M4237.042,3468.521a18.521,18.521,0,1,0-18.521,18.521A18.521,18.521,0,0,0,4237.042,3468.521Z" transform="translate(-4200 -3449.99)" fill="#f8b805"/><path d="M4201,3469.931Zm0-.015Zm0-.015v0Zm0-.015Zm0-.015v0Zm0-.016v0Zm0-.015v0Zm0-.015v0Zm0-.015v0Zm0-.015v0Zm0-.015v0Zm0-.015v0Zm0-.015v0Zm0-.015v0Zm0-.016v0Zm0-.015v0Zm0-.016v0Zm0-.015v0Zm0-.016v0Zm0-.015v0Zm0-.015v0Zm0-.015v0Zm0-.015v0Zm0-.015v0Zm0-.015v0Zm0-.016v0Zm0-.018v0ZM4219.936,3451Zm-.015,0Zm-.016,0h0Zm-.016,0h0Zm-.014,0h0Zm-.016,0h0Zm-.015,0h0Zm-.015,0h0Zm-.015,0h0Zm-.016,0h0Zm-.015,0h0Zm-.015,0h0Zm-.015,0h0Zm-.016,0h0Zm-.014,0h0Zm-.016,0h0Zm-.016,0h0Zm-.015,0h0Zm-.015,0h0Zm-.015,0h0Zm-.016,0h0Zm-.015,0h0Zm-.015,0h0Zm-.015,0h0Zm-.016,0h0Zm-.014,0h0Zm-.019,0h0Z" transform="translate(-4200.997 -3450.987)" fill="#fff"/><path d="M4205.167,3477.093q-.535-.594-1.022-1.233a18.462,18.462,0,0,1-3.145-9.919h0v-.015h0v-.033h0v-.372h0A18.521,18.521,0,0,1,4219.521,3447h.417a18.465,18.465,0,0,1,12.935,5.68,18.522,18.522,0,0,0-27.7,24.4Z" transform="translate(-4200.997 -3447)" fill="#fcd208"/><path d="M16460,9498.222v0Zm0-.022v0Zm0-.025Zm0-.023v0Zm0-.027v0Zm0-.024Zm0-.022v0Zm0-.029Zm0-.024Zm0-.023Z" transform="translate(-16422.957 -9479.717)" fill="#fbdb82"/><path d="M10046.149,15703Zm-.056,0Zm-.017,0h0Zm-.077,0Z" transform="translate(-10028.338 -15665.968)" fill="#085f6b"/><path d="M10093.7,15710h0Zm-.019,0h0Zm-.019,0h0Zm-.021,0h0Zm-.02,0h0Zm-.017,0h0Zm-.019,0h0Zm-.021,0h0Zm-.019,0h0Zm-.018,0h0Zm-.019,0h0Zm-.021,0h0Zm-.02,0h0Zm-.018,0h0Zm-.019,0h0Zm-.023,0h0Zm-.018,0h0Zm-.019,0h0Zm-.018,0h0Zm-.021,0h0Zm-.02,0h0Zm-.017,0h0Zm-.02,0h0Zm-.02,0h0Zm-.018,0h0Zm-.019,0h0Zm-.019,0Zm-.037,0h0Zm-.02,0h0Zm-.017,0h0Zm-.021,0Zm-.018,0h0Zm-.02,0h0Zm-.021,0Zm-.035,0h0Zm-.018,0Z" transform="translate(-10075.195 -15672.947)" fill="#1a8776"/><path d="M5254.381,5912.691h-.719a.345.345,0,0,1-.055,0h-.018c-.024,0-.048,0-.072,0h0a18.5,18.5,0,0,1-14.518-8.172l0,0a18.514,18.514,0,0,0,2.536,3.016,19.076,19.076,0,0,1-1.515-1.783A18.522,18.522,0,0,0,5269.138,5883a18.453,18.453,0,0,1,3.759,10.938h0v.023h0v.024h0v.045h0v.072h0v.07a18.521,18.521,0,0,1-18.521,18.521Z" transform="translate(-5235.861 -5875.64)" fill="#f49e02"/><path d="M5244.535,13003.015A18.585,18.585,0,0,1,5242,13000c.323.426.665.836,1.021,1.232A18,18,0,0,0,5244.535,13003.015Z" transform="translate(-5238.852 -12971.137)" fill="#f8b504"/><path d="M5013.113,4278.226a16.113,16.113,0,1,1,16.113-16.112A16.114,16.114,0,0,1,5013.113,4278.226Zm0-31.262a15.149,15.149,0,1,0,15.149,15.149A15.149,15.149,0,0,0,5013.113,4246.964Z" transform="translate(-4994.592 -4243.586)" fill="#f49e02"/><path d="M5346.3,4581.15a15.149,15.149,0,1,0-15.149,15.148A15.15,15.15,0,0,0,5346.3,4581.15Z" transform="translate(-5312.629 -4562.619)" fill="#f8b805"/><path d="M5660.389,4896.195a14.194,14.194,0,1,0-14.194,14.194A14.192,14.192,0,0,0,5660.389,4896.195Z" transform="translate(-5627.674 -4877.665)" fill="#f8b805"/><path d="M10501.009,13361.019l-.007-.007.023-.012Z" transform="translate(-10481.965 -13331.046)" fill="#f49e02"/><path d="M10470.449,12452.279a2.339,2.339,0,0,1-.447-.044c.172-.35.329-.7.468-1.039a1.859,1.859,0,0,1,.788-.879,2.256,2.256,0,0,1,1.144-.317h.058c-.03.169-.061.338-.1.51l-1.764,1.762C10470.548,12452.273,10470.5,12452.279,10470.449,12452.279Z" transform="translate(-10451.058 -12422.798)" fill="#f49e02"/><path d="M13863.307,9539.229a.814.814,0,0,1-.113-.211,1.053,1.053,0,0,1-.07-.329,1.189,1.189,0,0,1,.028-.351,1.173,1.173,0,0,1,.124-.338c.152.127.3.262.449.4a.717.717,0,0,1,.165.241l-.585.586Z" transform="translate(-13833.924 -9519.597)" fill="#f49e02"/><path d="M14273.338,9077.4a1.2,1.2,0,0,1,.047-.652.837.837,0,0,1,.342-.465c.149-.09.3-.184.442-.28a1.276,1.276,0,0,1-.01.688.456.456,0,0,0-.022.064l-.491.491c-.1.052-.205.1-.306.153Z" transform="translate(-14242.878 -9058.993)" fill="#f49e02"/><path d="M13977.6,9061.426c-.123-.115-.264-.227-.394-.335a.814.814,0,0,1-.262-.486,1.014,1.014,0,0,1,.059-.605c.139.095.278.193.417.293a.755.755,0,0,1,.275.5,1.09,1.09,0,0,1-.1.635Z" transform="translate(-13947.383 -9043.04)" fill="#f49e02"/><path d="M14134.409,8426.121a1.332,1.332,0,0,1-.252-.442,2.586,2.586,0,0,1-.072-.288,2.063,2.063,0,0,1-.038-.315,2.364,2.364,0,0,1,.055-.614,1.171,1.171,0,0,1,.211-.461,1.1,1.1,0,0,1,.3.413,1.671,1.671,0,0,1,.142.628,1.392,1.392,0,0,1-.012.339,1.663,1.663,0,0,1-.071.3,1.029,1.029,0,0,1-.264.442Z" transform="translate(-14104.029 -8408.964)" fill="#f49e02"/><path d="M8940.653,13262.595h-.085a2.467,2.467,0,0,1-.408-.043,3.351,3.351,0,0,1-.407-.108,2.558,2.558,0,0,1-.752-.4c.342-.22.664-.434.979-.676a1.654,1.654,0,0,1,.576-.273,2.479,2.479,0,0,1,.671-.094h.021a3.261,3.261,0,0,1,.728.072,2.786,2.786,0,0,1,.712.241c-.25.287-.52.572-.8.854a1.475,1.475,0,0,1-.568.33,2.114,2.114,0,0,1-.36.083,2.766,2.766,0,0,1-.3.018Z" transform="translate(-8924.683 -13231.348)" fill="#f49e02"/><path d="M9380.007,12451.282a2.255,2.255,0,0,1-.281-.019,2.2,2.2,0,0,1-.681-.217,1.889,1.889,0,0,1-.525-.408,1.38,1.38,0,0,1-.288-.537c-.1-.363-.17-.741-.232-1.1h.059a2.3,2.3,0,0,1,1.141.317,1.833,1.833,0,0,1,.789.881c.144.343.3.689.468,1.037a2.409,2.409,0,0,1-.446.043Z" transform="translate(-9362.354 -12421.802)" fill="#f49e02"/><path d="M8155.758,12963.426a.8.8,0,0,1-.1,0,1.712,1.712,0,0,1-.354-.056,2.478,2.478,0,0,1-.358-.106,2.594,2.594,0,0,1-.345-.169,2.934,2.934,0,0,1-.322-.215,2.523,2.523,0,0,1-.28-.27c.167-.069.338-.143.5-.214s.333-.153.493-.236a1.6,1.6,0,0,1,.568-.146c.066-.006.133-.01.2-.01a2.242,2.242,0,0,1,.438.045,2.493,2.493,0,0,1,.643.2,2.412,2.412,0,0,1,.6.346c-.281.216-.573.422-.876.627a1.28,1.28,0,0,1-.568.2,2.4,2.4,0,0,1-.243.014Z" transform="translate(-8142.056 -12933.252)" fill="#f49e02"/><path d="M8747.088,12191.461a2.163,2.163,0,0,1-.66-.107,2.219,2.219,0,0,1-.576-.319,1.823,1.823,0,0,1-.4-.462,1.2,1.2,0,0,1-.17-.536c-.012-.177-.021-.346-.024-.518s0-.349,0-.521a1.859,1.859,0,0,1,.29.076,2.013,2.013,0,0,1,.274.1,2.65,2.65,0,0,1,.251.148,1.682,1.682,0,0,1,.227.175,2.266,2.266,0,0,1,.362.424,1.526,1.526,0,0,1,.2.512c.065.333.145.68.235,1.023h-.006Z" transform="translate(-8731.52 -12162.585)" fill="#f49e02"/><path d="M7537.574,12503.337h-.108a1.8,1.8,0,0,1-.608-.154,2.27,2.27,0,0,1-.857-.647l.377-.379c.138-.034.278-.075.415-.11a1.454,1.454,0,0,1,.368-.046,1.941,1.941,0,0,1,.728.15,2.238,2.238,0,0,1,.544.29,2.182,2.182,0,0,1,.475.416c-.29.142-.589.273-.9.4a1.069,1.069,0,0,1-.431.081Z" transform="translate(-7525.92 -12474.642)" fill="#f49e02"/><path d="M8119.625,11898.3a2.041,2.041,0,0,1-.576-.218,2.121,2.121,0,0,1-.461-.387,1.339,1.339,0,0,1-.349-1c.008-.04.01-.082.016-.121l.581-.58a2.077,2.077,0,0,1,.414.4,1.876,1.876,0,0,1,.258.451,1.462,1.462,0,0,1,.093.494c0,.314.009.639.027.965Z" transform="translate(-8106.392 -11870.471)" fill="#f49e02"/><path d="M6580.067,11193.263a1.254,1.254,0,0,1-.835-.4,1.756,1.756,0,0,1-.231-.287l.577-.577a1.4,1.4,0,0,1,.742.395,1.773,1.773,0,0,1,.321.38c.045.071.087.146.126.221l-.257.256c-.148.006-.295.008-.443.008Z" transform="translate(-6571.813 -11168.599)" fill="#f49e02"/><path d="M7078.546,10770.113a.95.95,0,0,1-.124-.145,1.894,1.894,0,0,1-.229-.431,1.139,1.139,0,0,1,.03-.861c.124-.232.251-.46.38-.677a1.481,1.481,0,0,1,.46,1.585c0,.013-.009.021-.012.033l-.5.5Z" transform="translate(-7069.428 -10745.88)" fill="#f49e02"/><path d="M6330,8424.458a.21.21,0,0,1,.021-.045,1.072,1.072,0,0,1,.3-.413.528.528,0,0,1,.056.081l-.376.377Z" transform="translate(-6323.566 -8408.964)" fill="#f49e02"/><path d="M9761.354,7046.01a1.385,1.385,0,0,1-.946-.36,1.418,1.418,0,0,1-.409-1.124l.021-.263q.1-1.06.221-2.164l3.295-3.292q-.283,2.347-.652,5.719Q9762.71,7046.009,9761.354,7046.01Zm-.463-9.176c.1-.709.187-1.315.27-1.806l-.948.3,3.324-3.323a.963.963,0,0,1,.408.274,1.474,1.474,0,0,1,.311,1.005c0,.064,0,.127,0,.19l-3.363,3.363Z" transform="translate(-9743.2 -7021.168)" fill="#f28f01"/><path d="M12437.013,6226.058l-.01-.058.047.021Z" transform="translate(-12412.117 -6217.603)" fill="#f5a403"/><path d="M11599.581,5983.71l-.582-.557,1.153-1.153.446.2-.9.486Z" transform="translate(-11576.644 -5974.341)" fill="#f5a403"/><path d="M8599.4,5614.692l-.4-.185.905-.486.115-1.021.551.526Z" transform="translate(-8585.708 -5606.455)" fill="#f5a403"/><path d="M7506.2,6260.253l-.175-.329-1.023-.115.712-.741-.208-1.008.927.449.892-.51-.139,1.018.13.121Z" transform="translate(-7495.015 -6249.506)" fill="#f5a403"/><path d="M7078.51,7272.02a.51.51,0,1,1,.511-.51.477.477,0,0,1-.037.188l-.287.287A.5.5,0,0,1,7078.51,7272.02Z" transform="translate(-7069.304 -7259.446)" fill="#f5a403"/><path d="M13413.511,7272.02a.51.51,0,1,1,.511-.51A.513.513,0,0,1,13413.511,7272.02Z" transform="translate(-13385.164 -7259.446)" fill="#f5a403"/><path d="M5690.614,4960.542a13.931,13.931,0,0,1-1.613-6.527c0-.383.014-.767.044-1.142l1.892-1.892a1.959,1.959,0,0,0-.109.922,2.227,2.227,0,0,0,.073.3,1.025,1.025,0,0,0,.263.442,1.323,1.323,0,0,0,.25-.442,2.031,2.031,0,0,0,.073-.287,2.183,2.183,0,0,0,.038-.318,2.485,2.485,0,0,0-.054-.614,1.26,1.26,0,0,0-.154-.379l2.578-2.577a.516.516,0,0,0,.287-.287l1.505-1.505.307.578.424-.937,1.012-.182-.628-.573,1.4-1.4.529.237.181,1.013.692-.761,1.018.138-.507-.894.447-.925-1.005.208-.19-.185,2.517-2.518c.376-.029.758-.045,1.141-.045a13.942,13.942,0,0,1,6.527,1.613l-1.541,1.541-.49-.22-.18-1.012-.693.762-1.018-.14.507.9-.446.924,1.006-.208.164.153-2.019,2.019a1.558,1.558,0,0,0-.528-.081,3.525,3.525,0,0,0-.819.121l-.9.239a12.128,12.128,0,0,0-1.84.623,2.193,2.193,0,0,0-.828.573,1.408,1.408,0,0,0-.256.744l-.022.215a1.45,1.45,0,0,0,.236.813.739.739,0,0,0,.647.359l.257-.048.731-.229-9.245,9.245a.353.353,0,0,0-.055-.006c-.263-.024-.528-.055-.8-.093a2.023,2.023,0,0,0,.183.524c.031.052.061.1.095.149l-1.076,1.075Zm1.644-2.59h0a1.571,1.571,0,0,0-.967-1.292c-.232-.06-.456-.127-.683-.2a1.724,1.724,0,0,0,.018.245,1.684,1.684,0,0,0,.063.236,1.809,1.809,0,0,0,.209.429,1.1,1.1,0,0,0,.662.475C5691.795,4957.886,5692.028,4957.919,5692.258,4957.952Zm.5-2.184c-.147.175-.3.354-.431.535a.847.847,0,0,0-.151.342,1.039,1.039,0,0,0-.024.2,1.592,1.592,0,0,0,.015.208,1.523,1.523,0,0,0,.126.415,1.492,1.492,0,0,0,.263.359c.118-.2.239-.4.36-.591a1.076,1.076,0,0,0,.145-.726,1.362,1.362,0,0,0-.094-.386,1.013,1.013,0,0,0-.093-.182,1.3,1.3,0,0,0-.112-.172Zm-2.519-1.585a1.454,1.454,0,0,0,0,.419,1.572,1.572,0,0,0,.12.393,1.228,1.228,0,0,0,.209.313.789.789,0,0,0,.284.188c.194.069.384.139.578.2a1.422,1.422,0,0,0-.03-.393,1.373,1.373,0,0,0-.058-.185,1.649,1.649,0,0,0-.069-.175,1.042,1.042,0,0,0-.471-.5c-.185-.084-.369-.172-.556-.265Zm1.946-.291c-.151.13-.3.263-.447.4a.87.87,0,0,0-.248.619,1.156,1.156,0,0,0,.048.375,1.29,1.29,0,0,0,.164.35c.132-.154.268-.305.4-.453a.769.769,0,0,0,.163-.272,1.075,1.075,0,0,0,.073-.329,1.24,1.24,0,0,0-.03-.35,1.186,1.186,0,0,0-.123-.339Zm-1.937-1.4a1.268,1.268,0,0,0,.012.689.808.808,0,0,0,.359.472c.154.082.3.16.459.235a1.237,1.237,0,0,0-.048-.652.846.846,0,0,0-.342-.466c-.148-.09-.3-.184-.444-.281Zm1.671-.044c-.142.093-.278.193-.417.293a.76.76,0,0,0-.278.5,1.111,1.111,0,0,0,.1.634c.124-.115.263-.226.393-.335a.8.8,0,0,0,.263-.487,1.038,1.038,0,0,0-.057-.6Zm11.142-11.152-.422.936-1.013.182.762.692-.139,1.018.895-.508.925.447-.209-1.006.713-.743-1.021-.115-.487-.906Z" transform="translate(-5684.501 -4935.488)" fill="#fac707"/><path d="M6487.278,11161.673c-.033-.049-.063-.1-.093-.147a2.1,2.1,0,0,1-.184-.526c.268.034.537.069.8.093a.5.5,0,0,0,.054.006l-.578.578Z" transform="translate(-6480.09 -11137.692)" fill="#f7b304"/><path d="M6223.65,10390.492c-.229-.031-.462-.066-.7-.107a1.14,1.14,0,0,1-.663-.476,1.745,1.745,0,0,1-.208-.429c-.027-.079-.045-.157-.064-.236a1.7,1.7,0,0,1-.017-.243c.227.07.449.14.683.2A1.569,1.569,0,0,1,6223.65,10390.492Z" transform="translate(-6215.892 -10368.028)" fill="#f7b304"/><path d="M6733.151,10161.057a1.462,1.462,0,0,1-.263-.359,1.519,1.519,0,0,1-.127-.414,1.029,1.029,0,0,1-.015-.208,1.5,1.5,0,0,1,.024-.2.864.864,0,0,1,.151-.342c.136-.182.284-.362.432-.535a.983.983,0,0,1,.111.173c.033.06.067.119.095.181a1.432,1.432,0,0,1,.094.388,1.087,1.087,0,0,1-.146.725c-.121.193-.242.389-.36.592Z" transform="translate(-6725.093 -10138.719)" fill="#f7b304"/><path d="M6095.822,9636.512c-.189-.064-.384-.13-.577-.2a.816.816,0,0,1-.284-.187,1.189,1.189,0,0,1-.208-.313,1.538,1.538,0,0,1-.121-.394,1.5,1.5,0,0,1,0-.421c.186.094.373.181.556.267a1.047,1.047,0,0,1,.472.5,1.117,1.117,0,0,1,.069.177,1.132,1.132,0,0,1,.058.181,1.344,1.344,0,0,1,.03.394Z" transform="translate(-6088.894 -9616.302)" fill="#f7b304"/><path d="M6513.455,9538.746a1.213,1.213,0,0,1-.163-.352.979.979,0,0,1-.049-.375.879.879,0,0,1,.248-.619c.148-.139.3-.272.447-.4a1.044,1.044,0,0,1,.123.336,1.25,1.25,0,0,1,.031.352,1.046,1.046,0,0,1-.072.33.754.754,0,0,1-.164.271c-.135.147-.272.3-.4.454Z" transform="translate(-6506.252 -9518.601)" fill="#f7b304"/><path d="M6090.981,9078.395c-.158-.074-.306-.154-.459-.236a.8.8,0,0,1-.359-.47,1.276,1.276,0,0,1-.013-.688c.146.1.3.189.445.279a.875.875,0,0,1,.341.467,1.209,1.209,0,0,1,.048.652Z" transform="translate(-6084.397 -9059.99)" fill="#f7b304"/><path d="M6423.669,9062.422a1.1,1.1,0,0,1-.1-.635.769.769,0,0,1,.278-.5c.139-.1.271-.2.417-.292a1.048,1.048,0,0,1,.058.6.816.816,0,0,1-.263.487c-.13.107-.269.221-.394.335Z" transform="translate(-6416.845 -9044.038)" fill="#f7b304"/><path d="M6289.594,8452.043a1,1,0,0,1-.263-.443,2.293,2.293,0,0,1-.073-.3,1.78,1.78,0,0,1-.012-.337,1.669,1.669,0,0,1,.121-.583l.378-.378a1.264,1.264,0,0,1,.154.38,2.332,2.332,0,0,1,.053.615,2.587,2.587,0,0,1-.039.317,2.15,2.15,0,0,1-.072.286,1.332,1.332,0,0,1-.251.441Z" transform="translate(-6282.932 -8434.882)" fill="#f7b304"/><path d="M9211.883,7007.686a.742.742,0,0,1-.647-.359,1.454,1.454,0,0,1-.235-.813l.021-.214a1.461,1.461,0,0,1,.258-.744,2.2,2.2,0,0,1,.828-.574,12.271,12.271,0,0,1,1.841-.622l.9-.238a3.591,3.591,0,0,1,.818-.122,1.584,1.584,0,0,1,.528.081l-3.323,3.323-.732.231-.256.048Z" transform="translate(-9195.859 -6993.253)" fill="#f6a703"/><path d="M11192.062,5576.44l.445-.926-.507-.895,1.018.142.693-.762.18,1.012.49.221-1.152,1.155-.163-.155Z" transform="translate(-11170.873 -5567.573)" fill="#f8b805"/><path d="M9869.62,5372.83l.141-1.021-.76-.691,1.012-.182.424-.937.486.907,1.021.111-.713.744.209,1.006-.925-.447Z" transform="translate(-9851.874 -5364.189)" fill="#f8b805"/><path d="M8733.713,5781.44l-.18-1.012-.532-.239,1.165-1.165.189.184,1.009-.208-.448.928.508.895-1.019-.142Z" transform="translate(-8719.307 -5771.954)" fill="#f8b805"/><path d="M7902.308,6636.693l-.307-.579,1.114-1.114.632.574-1.012.181Z" transform="translate(-7890.815 -6625.368)" fill="#f8b805"/><path d="M7309,7502.287l.287-.287A.51.51,0,0,1,7309,7502.287Z" transform="translate(-7299.607 -7489.748)" fill="#f8b805"/><path d="M6497.148,8642.23a14.208,14.208,0,0,1-2.148-2.471l1.765-1.767c.118,0,.238-.009.354-.018a1.519,1.519,0,0,0-.1-.237l.167-.167a1.67,1.67,0,0,0,.238.2c.085-.238.169-.472.263-.7l8.067-8.065c-.094.667-.194,1.434-.3,2.295-.128,1.013-.242,2-.348,2.97l-4.6,4.6a1.958,1.958,0,0,0-.45-.24c-.055.276-.095.54-.13.82l-1.408,1.407c-.184.049-.369.094-.553.131a2.228,2.228,0,0,0,.178.247l-.994.994Zm.069-3.394a.651.651,0,0,0-.087,0c-.3.024-.6.048-.9.054a2.1,2.1,0,0,0,.761.962,1.562,1.562,0,0,0,.506.241,1.232,1.232,0,0,0,.318.046.931.931,0,0,0,.175-.017c.3-.056.586-.126.871-.2h0a2.286,2.286,0,0,0-.345-.456,2.168,2.168,0,0,0-.431-.351A1.616,1.616,0,0,0,6497.218,8638.837Zm1.266-1.69c-.106.268-.193.534-.28.814a1.23,1.23,0,0,0,.138.952,1.931,1.931,0,0,0,.345.426,1.691,1.691,0,0,0,.472.3c.042-.292.09-.575.147-.856a1.186,1.186,0,0,0,.006-.46,1.306,1.306,0,0,0-.06-.226,1.708,1.708,0,0,0-.762-.945Z" transform="translate(-6488.066 -8613.344)" fill="#fac707"/><path d="M7476.179,12554.376a2.288,2.288,0,0,1-.178-.249c.184-.036.368-.081.553-.129l-.378.378Z" transform="translate(-7466.103 -12526.482)" fill="#f7b304"/><path d="M8126,11818.819c.036-.28.072-.547.131-.819a1.9,1.9,0,0,1,.449.237Z" transform="translate(-8114.139 -11792.708)" fill="#f7b304"/><path d="M6904.585,11886.3a1.188,1.188,0,0,1-.317-.044,1.519,1.519,0,0,1-.507-.241,2.086,2.086,0,0,1-.761-.962c.3-.01.607-.029.9-.054a.662.662,0,0,1,.087,0,1.6,1.6,0,0,1,.867.284,2.342,2.342,0,0,1,.776.807h0c-.284.073-.574.139-.871.2A.79.79,0,0,1,6904.585,11886.3Z" transform="translate(-6894.833 -11859.506)" fill="#f7b304"/><path d="M7540.208,11326.494a1.633,1.633,0,0,1-.47-.3,1.967,1.967,0,0,1-.346-.428,1.234,1.234,0,0,1-.139-.95c.088-.279.179-.548.282-.817a1.793,1.793,0,0,1,.671.725,1.447,1.447,0,0,1,.09.224,1.164,1.164,0,0,1,.061.226,1.2,1.2,0,0,1-.006.459c-.057.281-.106.565-.148.858Z" transform="translate(-7529.12 -11300.201)" fill="#f7b304"/><path d="M7079,11522.255l.256-.255a1.551,1.551,0,0,1,.1.237l-.353.018Z" transform="translate(-7070.303 -11497.603)" fill="#f7b304"/><path d="M7219.238,11302.7a1.7,1.7,0,0,1-.239-.2l.5-.5c-.094.231-.178.463-.263.7Z" transform="translate(-7209.878 -11278.269)" fill="#f7b304"/><path d="M10928.007,5756.693q.447-3.758.659-4.9a3.644,3.644,0,0,0,.058-.433l3.85-3.849.194.949-.712.743,1.022.115.485.907.422-.937,1.013-.181-.762-.692.139-1.018-.893.508-.881-.427,1.475-1.474a14.115,14.115,0,0,1,2.472,2.148L10928,5756.7Z" transform="translate(-10907.673 -5739.054)" fill="#fac707"/><path d="M9840,7527.628q.157-1.449.347-2.97c.111-.861.209-1.629.3-2.3l3.363-3.362a3.7,3.7,0,0,1-.057.432q-.215,1.146-.66,4.9Z" transform="translate(-9822.962 -7506.697)" fill="#f6a703"/><path d="M12272.506,6207.831l-.486-.906-1.021-.115.71-.74-.2-.948.036-.036.879.425.894-.511-.141,1.021.761.693-1.012.181Z" transform="translate(-12246.613 -6196.667)" fill="#f8b805"/><path d="M9694.924,8957.947a14.39,14.39,0,0,1-1.924-.132l2.446-2.449c.253.283.518.568.8.85a1.475,1.475,0,0,0,.567.329,1.774,1.774,0,0,0,.359.081,2.413,2.413,0,0,0,.306.019h.085a2.522,2.522,0,0,0,.407-.045,3.475,3.475,0,0,0,.407-.106,2.7,2.7,0,0,0,.754-.4c-.342-.222-.666-.437-.979-.677a1.622,1.622,0,0,0-.577-.276,2.532,2.532,0,0,0-.672-.094h-.018a3.425,3.425,0,0,0-.728.073,2.916,2.916,0,0,0-.689.229l.483-.479c.04,0,.085-.006.127-.012a2.217,2.217,0,0,0,.68-.218,1.8,1.8,0,0,0,.525-.409,1.393,1.393,0,0,0,.291-.537c.052-.192.1-.39.136-.585l8.079-8.079a.378.378,0,0,0,.052.061c.136.147.271.3.4.452a1.228,1.228,0,0,0,.165-.351,1.03,1.03,0,0,0,.048-.375,1.145,1.145,0,0,0-.08-.376l.8-.795c.05-.027.1-.054.151-.082a.786.786,0,0,0,.34-.412l1.154-1.152a13.987,13.987,0,0,1-.7,6.7l-8.407,8.406a13.92,13.92,0,0,1-4.775.839Zm4.81-3.8a2.031,2.031,0,0,0-.437.047,2.543,2.543,0,0,0-.644.2,2.579,2.579,0,0,0-.6.347c.28.215.569.424.877.628a1.307,1.307,0,0,0,.566.194,1.954,1.954,0,0,0,.243.017.629.629,0,0,0,.1,0,2.28,2.28,0,0,0,.354-.054,2.835,2.835,0,0,0,.358-.109,2.247,2.247,0,0,0,.345-.168,2.812,2.812,0,0,0,.323-.215,2.513,2.513,0,0,0,.28-.27c-.171-.068-.338-.142-.5-.213s-.331-.154-.491-.235a1.6,1.6,0,0,0-.568-.151c-.066,0-.133-.008-.2-.008Zm-.021-2.337a1.831,1.831,0,0,0-.29.074,2.4,2.4,0,0,0-.275.106,2.211,2.211,0,0,0-.25.148,1.638,1.638,0,0,0-.229.171,1.558,1.558,0,0,0-.2.205,2.1,2.1,0,0,0-.167.223,1.537,1.537,0,0,0-.2.51c-.066.336-.145.679-.235,1.024h0a2.108,2.108,0,0,0,.656-.11,2.188,2.188,0,0,0,.579-.317,1.833,1.833,0,0,0,.4-.461,1.228,1.228,0,0,0,.168-.537c.013-.176.023-.346.025-.517s0-.349,0-.52Zm2.5.945a1.935,1.935,0,0,0-.729.15,2.344,2.344,0,0,0-.544.287,2.18,2.18,0,0,0-.474.418c.29.141.589.273.9.4a1.089,1.089,0,0,0,.432.082.987.987,0,0,0,.108,0,1.714,1.714,0,0,0,.606-.153,2.3,2.3,0,0,0,1.037-.895c-.323-.066-.652-.152-.969-.241a1.517,1.517,0,0,0-.369-.045Zm-.754-2.067a1.966,1.966,0,0,0-.863.635,1.8,1.8,0,0,0-.257.449,1.512,1.512,0,0,0-.093.5c0,.312-.009.637-.028.963a1.807,1.807,0,0,0,1.036-.6,1.335,1.335,0,0,0,.346-1c-.038-.319-.08-.626-.145-.939Zm2.838.2a1.586,1.586,0,0,0-.867.285,2.14,2.14,0,0,0-.432.349,2.227,2.227,0,0,0-.346.456h0c.285.073.575.139.87.2a.816.816,0,0,0,.177.015,1.216,1.216,0,0,0,.316-.044,1.521,1.521,0,0,0,.508-.241,2.091,2.091,0,0,0,.762-.961c-.3-.011-.609-.03-.9-.056C9704.352,8950.892,9704.324,8950.892,9704.294,8950.892Zm-1.267-1.692a1.791,1.791,0,0,0-.67.724,1.554,1.554,0,0,0-.091.222,1.217,1.217,0,0,0-.061.228,1.153,1.153,0,0,0,.007.459c.056.28.1.564.147.859a1.686,1.686,0,0,0,.471-.3,1.941,1.941,0,0,0,.344-.427,1.228,1.228,0,0,0,.141-.952c-.089-.277-.179-.547-.283-.815Zm3.506-.5c-.27.035-.539.069-.8.094a1.391,1.391,0,0,0-.8.4,1.906,1.906,0,0,0-.319.383,2.175,2.175,0,0,0-.227.458c.262.016.532.023.8.027a1.244,1.244,0,0,0,.832-.4,1.815,1.815,0,0,0,.513-.961Zm-2.264-1.188a1.486,1.486,0,0,0-.459,1.587c.1.238.188.481.273.732a1.473,1.473,0,0,0,.367-.346,1.934,1.934,0,0,0,.229-.432,1.136,1.136,0,0,0-.03-.861q-.185-.35-.38-.678Zm3.063-1.142c-.226.072-.449.14-.682.2a1.57,1.57,0,0,0-.968,1.294c.229-.032.463-.067.7-.11a1.111,1.111,0,0,0,.663-.474,1.84,1.84,0,0,0,.209-.429c.026-.078.043-.157.063-.234A1.622,1.622,0,0,0,9707.333,8946.368Zm-2.15-.7a1.389,1.389,0,0,0-.115.172,1.839,1.839,0,0,0-.09.182,1.316,1.316,0,0,0-.094.388,1.074,1.074,0,0,0,.145.724c.12.194.24.392.36.594a1.35,1.35,0,0,0,.389-.774,1.056,1.056,0,0,0,.016-.207,1.605,1.605,0,0,0-.023-.2.88.88,0,0,0-.153-.342c-.136-.182-.283-.363-.431-.535Zm2.52-1.586c-.186.095-.373.182-.556.265a1.063,1.063,0,0,0-.473.5c-.025.059-.05.116-.069.177a1.732,1.732,0,0,0-.057.184,1.349,1.349,0,0,0-.03.393c.19-.064.384-.129.577-.2a.813.813,0,0,0,.283-.188,1.176,1.176,0,0,0,.209-.314,1.531,1.531,0,0,0,.121-.393,1.512,1.512,0,0,0,0-.42Z" transform="translate(-9676.402 -8925.396)" fill="#fac707"/><path d="M10505.027,13261.6a2.6,2.6,0,0,1-.3-.019,2,2,0,0,1-.362-.081,1.425,1.425,0,0,1-.566-.329c-.28-.281-.543-.565-.795-.85l.018-.018a2.952,2.952,0,0,1,.689-.23,3,3,0,0,1,.729-.072h.018a2.7,2.7,0,0,1,.672.094,1.647,1.647,0,0,1,.576.274c.313.241.639.459.98.678a2.756,2.756,0,0,1-.755.4,3.754,3.754,0,0,1-.408.108,2.73,2.73,0,0,1-.405.042h-.087Z" transform="translate(-10483.958 -13230.35)" fill="#f7b304"/><path d="M10668,12620.758l1.763-1.76c-.04.2-.083.394-.137.587a1.338,1.338,0,0,1-.29.535,1.893,1.893,0,0,1-.525.411,2.376,2.376,0,0,1-.68.217C10668.087,12620.754,10668.041,12620.756,10668,12620.758Z" transform="translate(-10648.456 -12591.286)" fill="#f7b304"/><path d="M11367.685,12963.426c-.081,0-.161-.006-.242-.014a1.285,1.285,0,0,1-.567-.2c-.3-.205-.6-.417-.874-.627a2.411,2.411,0,0,1,.6-.346,2.63,2.63,0,0,1,.645-.2,2.183,2.183,0,0,1,.436-.045c.066,0,.134,0,.2.01a1.482,1.482,0,0,1,.568.146c.16.079.325.161.491.236s.333.145.5.214a2.937,2.937,0,0,1-.282.27,3.03,3.03,0,0,1-.322.215,2.571,2.571,0,0,1-.346.169,2.247,2.247,0,0,1-.358.106,1.662,1.662,0,0,1-.354.056c-.033,0-.064,0-.095,0Z" transform="translate(-11344.35 -12933.252)" fill="#f7b304"/><path d="M11306,12191.461h0c.091-.344.168-.69.236-1.023a1.645,1.645,0,0,1,.2-.512,1.388,1.388,0,0,1,.166-.221,1.755,1.755,0,0,1,.2-.2,1.534,1.534,0,0,1,.229-.175,2.517,2.517,0,0,1,.25-.148,1.786,1.786,0,0,1,.274-.1,1.942,1.942,0,0,1,.292-.076c0,.172,0,.347,0,.521s-.016.344-.024.518a1.228,1.228,0,0,1-.17.536,1.882,1.882,0,0,1-.4.462,2.225,2.225,0,0,1-.577.319,2.173,2.173,0,0,1-.66.107Z" transform="translate(-11284.53 -12162.585)" fill="#f7b304"/><path d="M12164.329,12502.343a1.086,1.086,0,0,1-.432-.081c-.308-.132-.607-.265-.9-.405a2.247,2.247,0,0,1,.477-.418,1.994,1.994,0,0,1,.542-.286,1.93,1.93,0,0,1,.73-.151,1.535,1.535,0,0,1,.366.044c.315.089.644.177.971.243a2.324,2.324,0,0,1-1.035.893,1.754,1.754,0,0,1-.609.155c-.036,0-.071,0-.107,0Z" transform="translate(-12138.939 -12473.646)" fill="#f7b304"/><path d="M12081,11819.544c.019-.327.027-.65.027-.964a1.358,1.358,0,0,1,.094-.5,1.861,1.861,0,0,1,.257-.45,1.968,1.968,0,0,1,.864-.634c.063.314.105.619.146.939a1.34,1.34,0,0,1-.349,1,2.152,2.152,0,0,1-.461.388,2.074,2.074,0,0,1-.575.218Z" transform="translate(-12057.188 -11791.712)" fill="#f7b304"/><path d="M12887.046,11886.3a1.177,1.177,0,0,1-.177-.014c-.295-.057-.584-.127-.868-.2h0a2.347,2.347,0,0,1,.344-.456,2.178,2.178,0,0,1,.432-.351,1.606,1.606,0,0,1,.868-.284.669.669,0,0,1,.088,0c.295.024.6.049.9.054a2.1,2.1,0,0,1-.761.962,1.553,1.553,0,0,1-.509.241A1.176,1.176,0,0,1,12887.046,11886.3Z" transform="translate(-12859.758 -11859.506)" fill="#f7b304"/><path d="M12732.656,11327.488c-.043-.293-.091-.576-.146-.857a1.163,1.163,0,0,1-.009-.461,2.1,2.1,0,0,1,.151-.449,1.771,1.771,0,0,1,.67-.721c.107.269.2.533.282.815a1.232,1.232,0,0,1-.139.95,1.843,1.843,0,0,1-.345.428,1.761,1.761,0,0,1-.471.3Z" transform="translate(-12706.703 -11301.198)" fill="#f7b304"/><path d="M13463.8,11161.359c-.269,0-.538-.012-.8-.028a1.953,1.953,0,0,1,.228-.459,1.8,1.8,0,0,1,.318-.38,1.352,1.352,0,0,1,.8-.4c.263-.025.529-.055.8-.095a2.039,2.039,0,0,1-.185.525,1.928,1.928,0,0,1-.327.435A1.235,1.235,0,0,1,13463.8,11161.359Z" transform="translate(-13435.015 -11136.695)" fill="#f7b304"/><path d="M13244.7,10768.319c-.086-.253-.179-.5-.273-.733a1.489,1.489,0,0,1,.458-1.586c.13.222.257.444.383.678a1.124,1.124,0,0,1,.029.861,1.839,1.839,0,0,1-.229.43,1.536,1.536,0,0,1-.367.348Z" transform="translate(-13217.022 -10743.886)" fill="#f7b304"/><path d="M13892,10390.492a1.564,1.564,0,0,1,.968-1.293c.232-.059.456-.128.682-.2a1.7,1.7,0,0,1-.018.243,1.916,1.916,0,0,1-.064.236,1.7,1.7,0,0,1-.206.429,1.127,1.127,0,0,1-.663.476C13892.461,10390.426,13892.229,10390.459,13892,10390.492Z" transform="translate(-13862.717 -10368.028)" fill="#f7b304"/><path d="M13622.66,10161.057c-.118-.2-.239-.4-.36-.592a1.055,1.055,0,0,1-.145-.725,1.361,1.361,0,0,1,.093-.388,1.419,1.419,0,0,1,.091-.181,1.059,1.059,0,0,1,.114-.173c.149.175.3.354.434.535a.837.837,0,0,1,.15.342.943.943,0,0,1,.024.2,1.394,1.394,0,0,1-.016.208,1.438,1.438,0,0,1-.127.414,1.463,1.463,0,0,1-.264.359Z" transform="translate(-13593.676 -10138.719)" fill="#f7b304"/><path d="M14166,9636.512a1.361,1.361,0,0,1,.03-.394,1,1,0,0,1,.057-.181,1.057,1.057,0,0,1,.069-.177,1.039,1.039,0,0,1,.47-.5c.186-.086.37-.173.557-.267a1.483,1.483,0,0,1,0,.421,1.619,1.619,0,0,1-.121.394,1.228,1.228,0,0,1-.209.313.821.821,0,0,1-.285.188c-.193.068-.384.139-.576.2Z" transform="translate(-14135.89 -9616.302)" fill="#f7b304"/><path d="M13925.457,9752.1c-.132-.156-.27-.307-.4-.453-.018-.019-.033-.04-.052-.062l.586-.586a1.073,1.073,0,0,1,.078.378,1.1,1.1,0,0,1-.049.375,1.244,1.244,0,0,1-.163.351Z" transform="translate(-13895.618 -9731.952)" fill="#f7b304"/><path d="M14382,9325.491l.492-.491a.774.774,0,0,1-.338.411Z" transform="translate(-14351.237 -9307.24)" fill="#f7b304"/><path d="M5588.37,4823.351a14.022,14.022,0,1,0,14.022,14.021A14.037,14.037,0,0,0,5588.37,4823.351Zm0,28.389a14.37,14.37,0,1,1,14.37-14.371A14.386,14.386,0,0,1,5588.37,4851.739Z" transform="translate(-5569.85 -4818.842)" fill="#f8b805"/><path d="M5588.37,4851.739a14.37,14.37,0,1,1,14.37-14.371A14.386,14.386,0,0,1,5588.37,4851.739Zm-14.021-14.371h0a14.022,14.022,0,1,0,28.044,0h0a13.961,13.961,0,0,0-3.661-9.438,14.075,14.075,0,0,0-3.835-2.971,13.92,13.92,0,0,0-6.526-1.612c-.384,0-.768.014-1.142.044a14.038,14.038,0,0,0-12.877,13.974h0Z" transform="translate(-5569.85 -4818.842)" fill="#fcd208"/><path d="M5471.964,5507.136c-1.852-.655-2.359-1.19-2.982-3.136-.625,1.946-1.133,2.481-2.981,3.136,1.852.656,2.359,1.191,2.981,3.136C5469.607,5508.327,5470.116,5507.794,5471.964,5507.136Z" transform="translate(-5462.175 -5497.784)" fill="#fff"/><path d="M12615.644,11362.963c-1.748-.622-2.229-1.123-2.823-2.964-.591,1.841-1.066,2.344-2.82,2.964,1.75.623,2.229,1.123,2.82,2.963C12613.415,11364.086,12613.893,11363.583,12615.644,11362.963Z" transform="translate(-12584.59 -11336.091)" fill="#fff"/><path d="M14019.786,12839.461a1.395,1.395,0,1,0-2.786,0,1.395,1.395,0,1,0,2.786,0Z" transform="translate(-13987.339 -12809.625)" fill="#fff"/><path d="M7050.785,4883.462a1.394,1.394,0,1,0-2.784,0,1.394,1.394,0,1,0,2.784,0Z" transform="translate(-7039.396 -4877.665)" fill="#fff"/></g></g></svg>