<svg xmlns="http://www.w3.org/2000/svg" width="72.971" height="72.063" viewBox="0 0 72.971 72.063"><g transform="translate(-858.19 -657.469)"><path d="M14.263,33.666a103.693,103.693,0,0,1-8.829-8.69C3.2,22.335,2.943,20.99,3.795,20.49s2.825-.156,5.16.461a28.036,28.036,0,0,1,7.658,3.109c2.619,1.6,5.153,3.932,6.359,4.762s1.086.156.539-1.643a52.592,52.592,0,0,1-2-8.059A43.381,43.381,0,0,1,21.4,8.655a44.188,44.188,0,0,1,1.583-7.7c.433-1.419.575-1.32,1.959.774A56.775,56.775,0,0,1,30.7,12.544c1.739,4.624,2.576,9.776,3.172,12.118s.965,1.884,2.172.131a40.165,40.165,0,0,1,5.834-7.083c2.562-2.282,5.614-3.786,7.147-4.013s1.583.848,1.334,3.045a28.606,28.606,0,0,1-2.051,8.318,31.181,31.181,0,0,1-4.294,6.324c-.987,1.26-.916,1.522,1.178,1.427a96.515,96.515,0,0,1,9.674-.394,18.618,18.618,0,0,1,7.473,1.671c1.285.72,1.086,1.377-.816,2.768a31.427,31.427,0,0,1-8.978,4.514A27.7,27.7,0,0,1,44,42.136c-1.725-.046-1.817.018-.142,2.033s5.11,5.986,6.962,8.3,2.115,2.967,1.086,3.087a17.518,17.518,0,0,1-5.33-.9,16.716,16.716,0,0,1-5.756-3c-2.115-1.625-4.705-4.1-6.182-5.259s-1.838-.994-2.619.7a38.77,38.77,0,0,1-4.053,7.6,30.108,30.108,0,0,1-6.835,6.2c-1.909,1.292-2.825,1.686-2.889.145A27.38,27.38,0,0,1,19.962,53.2c1-2.818,2.214-4.982,1.547-5.646s-3.236.174-6.054.6a34.115,34.115,0,0,1-8.758.121C3.851,47.959,1.225,47.3.338,46.629S.31,45.266,2.9,43.942s6.913-3.293,9.865-4.475,4.528-1.576,5.146-1.955.277-.752-.185-1.086a28.812,28.812,0,0,1-3.463-2.761Z" transform="translate(868.963 657.469) rotate(10)" fill="#204d42" fill-rule="evenodd"/><path d="M9.946,16.013A6.067,6.067,0,1,0,3.879,9.946,6.067,6.067,0,0,0,9.946,16.013Z" transform="translate(883.73 688.867)" fill="#fff"/></g></svg>