<svg xmlns="http://www.w3.org/2000/svg" width="119.569" height="17.525" viewBox="0 0 119.569 17.525"><g transform="translate(0 0)"><path d="M41.094,41.034a.736.736,0,0,0-.709.541l-1.8,5.555H32.681a.754.754,0,0,0-.731.766.746.746,0,0,0,.316.61c.118.08,4.77,3.478,4.77,3.478s-1.787,5.486-1.821,5.574a.829.829,0,0,0-.045.259.739.739,0,0,0,1.162.61l4.762-3.467s4.656,3.391,4.762,3.467a.739.739,0,0,0,1.162-.61.815.815,0,0,0-.046-.259c-.034-.087-1.821-5.574-1.821-5.574s4.651-3.4,4.77-3.478a.76.76,0,0,0-.408-1.376H43.608L41.8,41.575A.735.735,0,0,0,41.094,41.034Z" transform="translate(-31.95 -41.034)" fill="#2b6356" fill-rule="evenodd"/><path d="M41.094,41.034a.736.736,0,0,0-.709.541l-1.8,5.555H32.681a.754.754,0,0,0-.731.766.746.746,0,0,0,.316.61c.118.08,4.77,3.478,4.77,3.478s-1.787,5.486-1.821,5.574a.829.829,0,0,0-.045.259.739.739,0,0,0,1.162.61l4.762-3.467s4.656,3.391,4.762,3.467a.739.739,0,0,0,1.162-.61.815.815,0,0,0-.046-.259c-.034-.087-1.821-5.574-1.821-5.574s4.651-3.4,4.77-3.478a.76.76,0,0,0-.408-1.376H43.608L41.8,41.575A.735.735,0,0,0,41.094,41.034Z" transform="translate(-6.629 -41.034)" fill="#2b6356" fill-rule="evenodd"/><path d="M41.094,41.034a.736.736,0,0,0-.709.541l-1.8,5.555H32.681a.754.754,0,0,0-.731.766.746.746,0,0,0,.316.61c.118.08,4.77,3.478,4.77,3.478s-1.787,5.486-1.821,5.574a.829.829,0,0,0-.045.259.739.739,0,0,0,1.162.61l4.762-3.467s4.656,3.391,4.762,3.467a.739.739,0,0,0,1.162-.61.815.815,0,0,0-.046-.259c-.034-.087-1.821-5.574-1.821-5.574s4.651-3.4,4.77-3.478a.76.76,0,0,0-.408-1.376H43.608L41.8,41.575A.735.735,0,0,0,41.094,41.034Z" transform="translate(18.691 -41.034)" fill="#2b6356" fill-rule="evenodd"/><path d="M41.094,41.034a.736.736,0,0,0-.709.541l-1.8,5.555H32.681a.754.754,0,0,0-.731.766.746.746,0,0,0,.316.61c.118.08,4.77,3.478,4.77,3.478s-1.787,5.486-1.821,5.574a.829.829,0,0,0-.045.259.739.739,0,0,0,1.162.61l4.762-3.467s4.656,3.391,4.762,3.467a.739.739,0,0,0,1.162-.61.815.815,0,0,0-.046-.259c-.034-.087-1.821-5.574-1.821-5.574s4.651-3.4,4.77-3.478a.76.76,0,0,0-.408-1.376H43.608L41.8,41.575A.735.735,0,0,0,41.094,41.034Z" transform="translate(44.012 -41.034)" fill="#2b6356" fill-rule="evenodd"/><path d="M41.094,41.034a.736.736,0,0,0-.709.541l-1.8,5.555H32.681a.754.754,0,0,0-.731.766.746.746,0,0,0,.316.61c.118.08,4.77,3.478,4.77,3.478s-1.787,5.486-1.821,5.574a.829.829,0,0,0-.045.259.739.739,0,0,0,1.162.61l4.762-3.467s4.656,3.391,4.762,3.467a.739.739,0,0,0,1.162-.61.815.815,0,0,0-.046-.259c-.034-.087-1.821-5.574-1.821-5.574s4.651-3.4,4.77-3.478a.76.76,0,0,0-.408-1.376H43.608L41.8,41.575A.735.735,0,0,0,41.094,41.034Z" transform="translate(69.333 -41.034)" fill="#2b6356" fill-rule="evenodd"/></g></svg>